<svg id="Layer_1" data-name="Layer 1" xmlns="http://www.w3.org/2000/svg" viewBox="0 0 1305.4 236.55"><defs><style>.cls-1{fill:#fff;}.cls-2{fill:none;stroke:#fff;stroke-linecap:round;stroke-miterlimit:10;stroke-width:4px;}</style></defs><title>Artboard 1</title><path class="cls-1" d="M142.38,41.59a35,35,0,0,0,8.27-6.48c6.6-7.27,12.43-15,14.65-24.08.41-1.65.08-4.31-2.25-5.35s-6.39,9-21.47,10.69S89.61,2,59,4,14.42,24,9.11,34.31C3.91,44.37,4.28,59.47,4.29,60.12a.11.11,0,0,0,0,0c.12.29,1.37,3.23,3.67,3s3.24-1.75,3.29-2.66c.48-8.69,6.68-14.33,15-18.31C34.12,38.5,42.86,38,51.72,39.7c7.38,1.38,14.8,2.58,22.18,4,1,.19,4.48.59,5.38,1.13-.9.41-18.6,2.09-31.75,6.76S18.6,64.62,7.63,86.1s-9.37,55.19.14,74.18,15.7,24,31,32.82,31.43,12,38.57,12.29,19.8.28,31.15-2.75c16.57-4.43,24.21-9.33,31.48-17.13,7.95-8.53,17.82-19.44,21.57-36.23a158.41,158.41,0,0,0,3.34-36.51,4.25,4.25,0,0,0-4.42-4.49c-3.1-.1-3.19,1.94-3.18,3.88a134.08,134.08,0,0,1-2.77,32c-4.25,20.53-12.14,24.45-17,29.58,0,0-1.17.6-1.86.91a.15.15,0,0,1-.21-.14c-.13-5.71,3.91-117.63,3.71-129.6C139.15,42.47,140.31,42.7,142.38,41.59ZM69.2,60.95c3.52-5.21,13.61-13.8,14.38-14.45a.13.13,0,0,1,.11,0c1.33.16,24.48,3,28.11,3.52a.15.15,0,0,1,0,.29C109.44,51.45,98,56,91.17,58.91S67.09,70.31,64.63,71.54a.15.15,0,0,1-.22-.18A36,36,0,0,1,69.2,60.95Zm5.58,101.48a.15.15,0,0,1-.17-.16c.39-10.21.89-21.4,1.1-31.61.08-4.12.61-32.33.86-37.87s-.2-9.76,1.2-16.22a8.16,8.16,0,0,1,1.58-3.42c1.13-1,2.44-.81,2.41-.45L79.1,161.1C79,162,75.61,162.35,74.77,162.43ZM46.58,118c1.84-20.51,12.07-34.07,16.52-38.37,1.22-1.18,6.85-3.41,8-3.87a.15.15,0,0,1,.2.15L68,164.07c-1.32.76-3.9,1.82-4.84,1.38C60.77,164.33,43.24,155.18,46.58,118Zm30.09,82.28c-6.42-.06-32.83-6.54-50.28-24.12S6.43,133.29,7.16,118s1.78-21,5.23-29.72a45.33,45.33,0,0,1,11-15.18h0a1.3,1.3,0,0,1,2,1.1,5.4,5.4,0,0,1-.25,2c-3.6,5-5.29,8-8.41,15.47s-5.87,20.05-4.48,38.31,7.17,31.45,18.37,42.87,33.69,22.26,38.15,23.81c2.7.94,5.54,1.58,8.3,2.41.38.12.63.55.94.83A6.55,6.55,0,0,1,76.68,200.25Zm51.91-21.82a57.33,57.33,0,0,1-26.79,9.14c-10.79.79-19.07-2.47-28.7-8.37-5.51-3.38-7.81-6.4-5.65-7,.15,0,.08-.44.36-.54l60.59-13.48a.16.16,0,0,1,.19.16m.13-5.31-18,4a.15.15,0,0,1-.15-.24,16.42,16.42,0,0,0,3.15-7.77,88.78,88.78,0,0,0,1.25-12.29l0-.93c-.19-3.69,1.32-52.41,1.31-63.27,0-5.67-.54-20.42,3.92-21.75,1.63-.49,9.71-3.83,11.33-4.23.75-.19,2.54-.56,2.47,0-.35,5.1-3.63,74-5.11,106.31A.15.15,0,0,1,128.72,153Zm5.7-114.55c-5.67,3.65-12.65,4.3-19.3,5.54a27,27,0,0,1-8.67-.21c-7.49-1.13-15-2.44-22.37-3.85C77.47,38.66,71,37,64.34,35.81c-5.88-1.09-11.83-2.05-17.8-2.69a40.27,40.27,0,0,0-10.06.24,46.77,46.77,0,0,0-9.75,2.7c-2.2.85-4,2.42-6,3.55-.84.46-3.88,2.53-5.26,3.21a.15.15,0,0,1-.2-.22,41.55,41.55,0,0,1,3.19-4.23c4.1-4.46,9.42-8.22,19.15-9.37s24.91,2,33.28,3.55c9.46,1.8,18.85,3.9,28.33,5.63a110.85,110.85,0,0,0,14.74,1.76,59.16,59.16,0,0,0,11.73-.81,59.61,59.61,0,0,0,8.08-2.3c1.05-.27,2.83-.22,2.84.19S135.33,37.85,134.42,38.44Z"/><path class="cls-1" d="M1089,163.5c-.25,1.58-2.67,7.42-9.25,21.42s-7.32,18-11.48,16.88c-9.09-2.45-18.77-12.21-19.89-20.42-.08-1.25-.84-1.63-1-1.12-.69,1.7-1.55,5.09-2.44,6.67a2.2,2.2,0,0,1-2.66,1.06c-1.19-.47-1.15-1.46-1.26-2.45a7.87,7.87,0,0,1,.68-3.1c2.72-8.38,5.08-12.29,5.33-30.54s.61-43.1.67-46.49c0-1.29.15-4.89-1.26-5.39s-1.81,1.24-1.88,2.14c-.2,2.49-.4,4.26-.69,6.73-.13,1.08-1.58,3.5-3.17,2.67s-1.63-3.07-1.67-4.29c-.37-11.75,11.06-31.35,13.38-36.26s4.34-4.56,8.31-3.64c6.29,1.45,10.71,4.8,14.64,9.23s4.71,10.31,5.08,11a21,21,0,0,0,1-2.42c.54-1.46,3.18-8.21,4-9.28.55-.76,3.8.56,3.19,3.4a29.24,29.24,0,0,1-1.79,4.61c-1.74,4.3-4.17,9.67-4.65,14.11s-.79,17.71-.79,34.79-1.81,32.88,1.33,33.92c1,.52,1.56-1.61,2.27-3.81C1085.39,161.51,1089.28,161.92,1089,163.5Zm-37.78-.28c0,9.14.13,17.13,5.88,24.52,1.14,1.47,6.25,6.7,9.37,7.22,2.47.41,4-.2,3.26-2.51-.39-1.2-5-2.84-9.48-8.77s-4.82-11.64-4.82-23.06,2-52.23,0-61.79c-.63-3-2.4-6.07-4.14-7.17s-2.6-1.33-3.41-.94c-1.33.64-1.54,2.17.29,3.62,3.49,2.77,4.16,6.68,4.19,10.82C1052.4,109.65,1051.25,154.08,1051.25,163.22Zm15.76-85a18,18,0,0,1,6.5,12.38c.29,5.17.07,46.31,0,53.94s-.29,16.78,0,20.22,3.42,5.92,4.38,5.17.3-2.64-.76-4-.78-3.1-.78-17.46.17-52.26,0-53.33c.36-8.12-2.68-16.22-7.78-19.68s-8-4-9.43-4.24a2.19,2.19,0,0,0-2.4,1.38c-.26.58,1.39,1.19,1.82,1.33A25.71,25.71,0,0,1,1067,78.19Z"/><path class="cls-1" d="M1063.93,11.71a4.32,4.32,0,0,1,3.68,2c1.65,2.38,11.37,12.46,13.08,13.58,2.08,1.37,3,3.82.92,5-6.6,5-16.41,17.7-18.61,17.7s-10.37-15-16.47-19.88c-.93-.74-1.08-3.54-.28-4.89S1061.9,11.71,1063.93,11.71ZM1065,40.19c-.08-1.53-8.59-11.45-10.71-12.17s-2.39,1.55-1.3,2.27c4.24,2.77,5.95,6,8.65,10,.41.59,1.54,2.5,2.13,2.42C1064.77,42.56,1065.07,41.72,1065,40.19Z"/><path class="cls-1" d="M925.69,164.17c-.25,1.58-2.67,7.42-9.25,21.42s-7.32,18-11.48,16.88c-9.09-2.45-18.77-12.21-19.89-20.42-.08-1.25-.84-1.63-1-1.12-.69,1.7-1.55,5.09-2.44,6.67a2.2,2.2,0,0,1-2.66,1.06c-1.19-.47-1.15-1.46-1.26-2.45a7.87,7.87,0,0,1,.68-3.1c2.72-8.38,5.08-12.29,5.33-30.54s.61-43.1.67-46.49c0-1.29.15-4.89-1.26-5.39s-1.81,1.24-1.88,2.14c-.2,2.49-.4,4.26-.69,6.73-.13,1.08-1.58,3.5-3.17,2.67s-1.63-3.07-1.67-4.29c-.37-11.75,11.06-31.35,13.38-36.26s4.34-4.56,8.31-3.64c6.29,1.45,10.71,4.8,14.64,9.23s4.71,10.31,5.08,11a21,21,0,0,0,1-2.42c.54-1.46,3.18-8.21,4-9.28.55-.76,3.8.56,3.19,3.4a29.24,29.24,0,0,1-1.79,4.61c-1.74,4.3-4.17,9.67-4.65,14.11S918,116.4,918,133.48s-1.81,32.88,1.33,33.92c1,.52,1.56-1.61,2.27-3.81C922.06,162.18,925.94,162.59,925.69,164.17Zm-37.78-.28c0,9.14.13,17.13,5.88,24.52,1.14,1.47,6.25,6.7,9.37,7.22,2.47.41,4-.2,3.26-2.51-.39-1.2-5-2.84-9.48-8.77s-4.82-11.64-4.82-23.06,2-52.23,0-61.79c-.63-3-2.4-6.07-4.14-7.17s-2.6-1.33-3.41-.94c-1.33.64-1.54,2.17.29,3.62,3.49,2.77,4.16,6.68,4.19,10.82C889.06,110.32,887.91,154.75,887.92,163.89Zm15.76-85a18,18,0,0,1,6.5,12.38c.29,5.17.07,46.31,0,53.94s-.29,16.78,0,20.22,3.42,5.92,4.38,5.17.3-2.64-.76-4-.78-3.1-.78-17.46.17-52.26,0-53.33c.36-8.12-2.68-16.22-7.78-19.68s-8-4-9.43-4.24a2.19,2.19,0,0,0-2.4,1.38c-.26.58,1.39,1.19,1.82,1.33A25.71,25.71,0,0,1,903.68,78.86Z"/><path class="cls-1" d="M900.59,12.38a4.32,4.32,0,0,1,3.68,2c1.65,2.38,11.37,12.46,13.08,13.58,2.08,1.37,3,3.82.92,5-6.6,5-16.41,17.7-18.61,17.7s-10.37-15-16.47-19.88c-.93-.74-1.08-3.54-.28-4.89S898.57,12.38,900.59,12.38Zm1.06,28.48c-.08-1.53-8.59-11.45-10.71-12.17s-2.39,1.55-1.3,2.27c4.24,2.77,5.95,6,8.65,10,.41.59,1.54,2.5,2.13,2.42C901.44,43.23,901.73,42.39,901.66,40.86Z"/><path class="cls-1" d="M851.32,42.41c.07-1.83-.16-3.12-1.14-3.87s-2,1.55-2.11,3.18-.55,101.91,0,113.23,2.45,12.27,5.86,12.16c.95,0,1.51-2.49.79-2.7-2.9-.86-2.51-1.77-3.39-5.33S851.24,44.24,851.32,42.41Zm-5.57,148.45c-4.36-1-16-8.86-16.29-22.36S828.1,42.6,828.11,39.25c0-2.85-1.22-5-3.62-7-1.79-1.51-2.66-1.71-3.67.33-.36.74.17,2.33,1.5,3.5s1.5,2,1.72,4c.28,2.64.4,118.61.62,130.14s9.94,22.84,19.77,24.25A2.25,2.25,0,0,0,846,193,2.17,2.17,0,0,0,845.75,190.86Zm1.06,9.6c-2.47-.42-7.25-.64-14.51-5.84s-11.85-16.28-12.13-14.14a39.69,39.69,0,0,1-1.75,7.19c-.26.78-3.27-1.12-3.32-2.14-.22-5.13,4.51-17,4.51-29.78s2.16-115,0-116.61-3,4.86-3,6.6c-.06,2,0,4.32-2.6,4.46s-3.09-2-3.08-4.08c0-5,15.17-40.12,20.89-40.86,4.52-.59,13.29.08,17.63,10.08s3.14,12,4,12.42,1.74-7.58,4.33-9.42c1.84-1.3,2.9,1.35,2.7,2.08-1.86,7-5.87,16.42-5.87,22.75s-.48,101.75,0,109-.25,8.68,1.32,9.15,2.89-4.48,3.13-6.47c.16-1.29,1.18-3.42,2-3.49,1.67-.15,3.06,1.1,2.72,3.25-.81,5-10.61,35.06-12.86,39.93S846.81,200.46,846.81,200.46Z"/><path class="cls-1" d="M221.77,162.35c.75-3.83,4.3-2.7,4.27-.42s-12.14,38.37-13.29,39.7a6.27,6.27,0,0,1-4.87,1.62c-12-1-20.86-10.24-22.36-14s-2.27,1.2-4.76,5.1-5.9,1.65-3.7-3.1,5-16.49,5-37.49,1-99.39,1.59-105.49a7.29,7.29,0,0,0-.09-2.08c-.08-.41-1.15-2.15-1.83,0s-1.48,5.71-2.39,7-2.42,2.86-4,1.93-1.21-2.36-1.42-3.63c-.14-.86,2.63-10.2,5.77-18.22s9.27-18.29,10.6-22c1.42-3.92,7.16-5.26,11.25-3.75a25.37,25.37,0,0,1,12,9c1.38,1.77,3.28,9.69,3.84,10.42.57-.82,2.7-8.8,4.64-12.21.52-.92,3.23-1.65,4-1.12,1.47,1,1.72,2.81.27,4.65-3.1,3.93-7.28,15.26-7.28,30s-1.05,40.17.14,40.38S225.27,81.25,230,74.5s7.38-6.38,12-5.73,11.59,3.66,15.27,8c4.83,5.68,4.68,13.6,5.49,13.72,1.43.2,4.44-6.93,5.77-8s2.09-1.27,2.91.15a3.4,3.4,0,0,1,.13,3.26c-1.64,4.23-6.12,12-7,25.65s-1.17,53.34,1.08,53.63c1.59.2,2.77-4.17,3.72-6,.7-1.34,2.63-2.12,3.86-.3.78,1.16-.16,3.83-1.16,6.66-3.61,10.22-11.33,27.84-13.34,32-1.52,3.13-7.06,5.46-10.41,3.76-5.3-2.7-19.25-6.5-19.25-31.75s-.17-54.33-1.67-63.17-8-4.7-9.5-2.33-.74,44-.79,51.24a53.73,53.73,0,0,0,.24,7.23C218,167.75,221,166.18,221.77,162.35Zm-35.32,9.25a27.15,27.15,0,0,0,4.13,14.4c3,4.5,12.8,10.24,17.83,11.78a2.38,2.38,0,0,0,1.83-.67c1.84-1.74,1.17-3.68-1.43-4.61-5.32-1.9-10.39-4.71-13.61-9.51a23.19,23.19,0,0,1-3.91-13.2c-.15-10.09.17-123,0-124.46-.36-3.46.34-6.25-.47-9.63-.22-.9-1.53-3.09-3.25-1.7s-.39,7.84-.34,10c.16,6.23-.17,12.46-.22,18.69C186.95,73.25,186.94,159.84,186.45,171.59Zm52.48,15.73c3.43,5.41,10.4,8.27,12.73,8.5s4-2.81.39-4.23c-7.62-3.51-12.52-11.07-13-21.63s-1.89-53.88-1.79-64.54-10.45-15.49-13-12.78c-.56.59-1.54,2.87.46,3.07s7.49.45,8.36,10.84c.61,7.31.45,44.15,1,57.72S235.5,181.92,238.93,187.33Zm16.76-26.49c.05,8.56,3,11.5,4.5,12.5s2.3.57,2.5-1-3.75-4.17-3.5-12.17.29-35.12.08-46.92-.69-23.62-3.61-30.21c-2.62-5.9-10.41-9.82-11.36-7.76s4.77,2.66,8.72,9.59c2,4.47,2.46,16.24,2.8,29.52C256.39,136.54,255.64,152.28,255.69,160.84ZM211.62,68m6,100.35-8.35-7.65c.68,11,4,12.62,5.91,13.78.51.31,3.4-1.65,1.17-3.66s-3.28-1.6-3.54-13.85.33-112.48.08-122.23-5.71-16-7.17-16.54-1.45,2.24.23,5.75,2.8,4.18,3.27,15.68S208.6,149.71,209.28,160.71Zm2.37-90.88"/><path class="cls-1" d="M741.69,163.5c-.25,1.58-2.67,7.42-9.25,21.42s-7.32,18-11.48,16.88c-9.09-2.45-18.77-12.21-19.89-20.42-.08-1.25-.84-1.63-1-1.12-.69,1.7-1.55,5.09-2.44,6.67a2.2,2.2,0,0,1-2.66,1.06c-1.19-.47-1.15-1.46-1.26-2.45a7.87,7.87,0,0,1,.68-3.1c2.72-8.38,5.08-12.29,5.33-30.54s.61-43.1.67-46.49c0-1.29.15-4.89-1.26-5.39s-1.81,1.24-1.88,2.14c-.2,2.49-.4,4.26-.69,6.73-.13,1.08-1.58,3.5-3.17,2.67s-1.63-3.07-1.67-4.29C691.3,95.53,702.73,75.93,705.06,71s4.34-4.56,8.31-3.64c6.29,1.45,10.71,4.8,14.64,9.23s4.71,10.31,5.08,11a21,21,0,0,0,1-2.42c.54-1.46,3.18-8.21,4-9.28.55-.76,3.8.56,3.19,3.4a29.24,29.24,0,0,1-1.79,4.61c-1.74,4.3-4.17,9.67-4.65,14.11s-.79,17.71-.79,34.79-1.81,32.88,1.33,33.92c1,.52,1.56-1.61,2.27-3.81C738.06,161.51,741.94,161.92,741.69,163.5Zm-37.78-.28c0,9.14.13,17.13,5.88,24.52,1.14,1.47,6.25,6.7,9.37,7.22,2.47.41,4-.2,3.26-2.51-.39-1.2-5-2.84-9.48-8.77s-4.82-11.64-4.82-23.06,2-52.23,0-61.79c-.63-3-2.4-6.07-4.14-7.17s-2.6-1.33-3.41-.94c-1.33.64-1.54,2.17.29,3.62,3.49,2.77,4.16,6.68,4.19,10.82C705.06,109.65,703.91,154.08,703.92,163.22Zm15.76-85a18,18,0,0,1,6.5,12.38c.29,5.17.07,46.31,0,53.94s-.29,16.78,0,20.22,3.42,5.92,4.38,5.17.3-2.64-.76-4-.78-3.1-.78-17.46.17-52.26,0-53.33c.36-8.12-2.68-16.22-7.78-19.68s-8-4-9.43-4.24a2.19,2.19,0,0,0-2.4,1.38c-.26.58,1.39,1.19,1.82,1.33A25.71,25.71,0,0,1,719.68,78.19Z"/><path class="cls-1" d="M716.59,11.71a4.32,4.32,0,0,1,3.68,2c1.65,2.38,11.37,12.46,13.08,13.58,2.08,1.37,3,3.82.92,5-6.6,5-16.41,17.7-18.61,17.7s-10.37-15-16.47-19.88c-.93-.74-1.08-3.54-.28-4.89S714.57,11.71,716.59,11.71Zm1.06,28.48c-.08-1.53-8.59-11.45-10.71-12.17s-2.39,1.55-1.3,2.27c4.24,2.77,5.95,6,8.65,10,.41.59,1.54,2.5,2.13,2.42C717.44,42.56,717.73,41.72,717.66,40.19Z"/><path class="cls-1" d="M792.65,43.08c.07-1.83-.16-3.12-1.14-3.87s-2,1.55-2.11,3.18-.55,101.91,0,113.23,2.45,12.27,5.86,12.16c.95,0,1.51-2.49.79-2.7-2.9-.86-2.51-1.77-3.39-5.33S792.58,44.9,792.65,43.08Zm-5.57,148.45c-4.36-1-16-8.86-16.29-22.36s-1.36-125.9-1.35-129.24c0-2.85-1.22-5-3.62-7-1.79-1.51-2.66-1.71-3.67.33-.36.74.17,2.33,1.5,3.5s1.5,2,1.72,4c.28,2.64.4,118.61.62,130.14s9.94,22.84,19.77,24.25a2.25,2.25,0,0,0,1.55-1.48A2.17,2.17,0,0,0,787.08,191.52Zm1.06,9.6c-2.47-.42-7.25-.64-14.51-5.84S761.78,179,761.5,181.15a39.69,39.69,0,0,1-1.75,7.19c-.26.78-3.27-1.12-3.32-2.14-.22-5.13,4.51-17,4.51-29.78s2.16-115,0-116.61-3,4.86-3,6.6c-.06,2,0,4.32-2.6,4.46s-3.09-2-3.08-4.08c0-5,15.17-40.12,20.89-40.86,4.52-.59,13.29.08,17.63,10.08s3.14,12,4,12.42S796.43,20.84,799,19c1.84-1.3,2.9,1.35,2.7,2.08-1.86,7-5.87,16.42-5.87,22.75s-.48,101.75,0,109-.25,8.68,1.32,9.15,2.89-4.48,3.13-6.47c.16-1.29,1.18-3.42,2-3.49,1.67-.15,3.06,1.1,2.72,3.25-.81,5-10.61,35.06-12.86,39.93S788.14,201.13,788.14,201.13Z"/><path class="cls-1" d="M526.69,12.43c8.5-3.5,18.1-5.58,27.54,1.57s14.12,14.29,17.45,23.14,3.23,23.6-1.89,35.16A56.22,56.22,0,0,1,558,89.65a37.82,37.82,0,0,1-8.67,6.67c-4.67,2.42-12.83,6.17-19.08,7.17s-8.83,1.77-8.83,5.17-.77,40.76-.83,46.67c0,2.15.65,2.87,2.74,3.31,4.32.91,19.09,7,22.32,8.39.32.14.72-.54,1-.87,3.27-3.83,4.15-4.1,5.75-6.33s3-4.23,4.52-3.31.87,3.08-.19,4.86c-2.12,3.56-37.38,41.18-39.74,43.69s-4.44,4.23-7,2.72c-3.7-2.18-24-15.11-38.83-17.44s-31.23,5.39-35.32,9.95c0,0-3.58,2-4.53,1.53-7.16-3.67,6.59-28.42,30.5-38.17,17.56-7.16,39.1-7.44,43.85-7.26s10.79.85,10.65-1.24c-.19-2.9.92-111.23,1.18-114.19.18-2.06-.67-3.31-4.34-5.31s-7.83-2.67-10.33-1.33S500,42.15,500.18,51s8.42,35.21,8.67,53.33,0,28.33-11.5,39.5-28.06,16.27-31.68,17.65a24.87,24.87,0,0,1-4.64,1.41c-1.06.18-2.65.29-3-.56a3.75,3.75,0,0,1,.66-3.13,53.92,53.92,0,0,1,5.19-6.61c2.15-2.29,9.88-18.61,3.83-31.9s-19.08-14.14-25.18-12.07c-2.58.67-4.25.38-4.23-3.43a15,15,0,0,1,10.19-14c2.79-.91,7.2-2.18,11-1.68-1.67-3.33-7.85-4.64-9.33-4.83-6.06-.79-9.85-.12-15.33,3-5,2.85-6.47,8.24-7,14.33-.35,4-.13,7.47,1.91,11.17,2.56,4.63,5.48,7.91,9.93,9.62,4.19,1.62,8.53,2.83,13.1,1.49,1-.3,3.4.25,3.78,1.5s-.25,2.63-2.62,3.38-7.62,1.25-14.12-.62-14.12-4.88-19.25-18.38-3.27-32.09,12.61-41,25.43-4,26.73-3.77c1.86.32,2.46.18,3.25-2.4a44.34,44.34,0,0,1,12.33-18.92C483.84,36.44,518.19,15.93,526.69,12.43Zm-6,85.83c0,.34.87.5,1,.32a48.07,48.07,0,0,0,7.67-8.25,27.35,27.35,0,0,0,6.16-14.73c.83-6.87.65-13.18-1.41-19.69-1.79-5.67-6.58-11.33-8.42-13s-3.21-2.19-3.5-2.08-.27,1.8-.29,2.33C521.89,46.26,520.55,96.72,520.74,98.25Zm-77.8,90.17c-3.21,2.37-6.08,4.2-5.68,5.21s2.84-.74,4.12-1.42c2.13-1.13,11.78-6.23,21.45-6.9s21.1,4.08,27.46,7c6.86,3.11,13.41,7,20.2,10.28,1.14.56,3.54.53,4-.21,1-1.62-1-3.34-3.16-4.54-7.29-4-18.39-10.39-34.89-14.39S446.16,186.06,442.94,188.43Zm96.75-144c-11-16-28.94-17.23-29.35-15.94s3.38,1.58,9.21,3.92,12.38,6.83,17.71,15.92,5.17,16,4.33,23.83-2.72,12.53-5.25,16.08-6.5,7-6.33,7.5,2.67-.75,6-3.83a29.26,29.26,0,0,0,6.5-8.83C545.3,77.58,550.69,60.43,539.69,44.43Zm-90.4,56.23c-3.12,1-4.55,2.08-4.25,3s1.82-.33,6.91,0,8.38,1.17,12.26,4.52,6.72,6.39,9.13,17.35-.21,19.5-1.79,22.67-4.51,6.21-4.12,6.92,3.28.61,7.51-6.78,3.8-20.72,2.23-27.26a30.68,30.68,0,0,0-9.49-16.21C462,99.77,452.41,99.65,449.3,100.65Zm-5.62-23.88c-7.75,1-12.25,3.88-14.5,7.13s-3.49,7-2.92,7.42,1.89-1.85,2.33-2.58a17,17,0,0,1,13-8.58A21.17,21.17,0,0,1,456.3,82.4c4.25,2.44,6,5.2,6.63,4.63s-1.78-3.82-3.87-6C457.34,79.25,451.43,75.78,443.68,76.78Zm43.58-34.12c-.16-.36.69-1,0-1.42s-1.42.11-1.74.36c-1.46,1.13-2.92,2.26-4.3,3.5-6.48,5.83-11.67,12.26-14.3,21.14-.24.81-.63,2.3.33,2.67s2-.86,3.42-5.17,8.09-13.12,14.75-19.08A13,13,0,0,0,487.26,42.65ZM495,53.94c-.37-.71-.81-.69-1.56-.56s-.06,1.51,0,1.89c.42,2.05,5.42,23.38,7.29,43s-.64,28.25-2.13,33.55a5.89,5.89,0,0,0-.08,1.23,25.16,25.16,0,0,0,4.68-11,127.68,127.68,0,0,0-.35-30.78C501,77.9,496.71,57.82,495,53.94Zm17.65,109.54a87.68,87.68,0,0,1,23.21,6.95,30.62,30.62,0,0,0,4.56,1.42c.53.13,1.69.38,1.74-.28s-.82-1.06-1.34-1.27c-4.8-1.88-18.43-7.89-27.23-9s-28.22-1.17-30,.26c-.44.35-.46,1.35.11,1.32C488,162.64,500.89,161.81,512.69,163.48Z"/><path class="cls-1" d="M629.44,162c.75-3.83,4.3-2.7,4.27-.42s-12.14,38.37-13.29,39.7a6.27,6.27,0,0,1-4.87,1.62c-12-1-20.86-10.24-22.36-14s-2.27,1.2-4.76,5.1-5.9,1.65-3.7-3.1,5-16.49,5-37.49,1-99.39,1.59-105.49a7.29,7.29,0,0,0-.09-2.08c-.08-.41-1.15-2.15-1.83,0s-1.48,5.71-2.39,7-2.42,2.86-4,1.93-1.21-2.36-1.42-3.63c-.14-.86,2.63-10.2,5.77-18.22s9.27-18.29,10.6-22c1.42-3.92,7.16-5.26,11.25-3.75a25.37,25.37,0,0,1,12,9c1.38,1.77,3.28,9.69,3.84,10.42.57-.82,2.7-8.8,4.64-12.21.52-.92,3.23-1.65,4-1.12,1.47,1,1.72,2.81.27,4.65-3.1,3.93-7.28,15.26-7.28,30s-1.05,40.17.14,40.38,6.11-7.38,10.86-14.13,7.38-6.38,12-5.73,11.59,3.66,15.27,8c4.83,5.68,4.68,13.6,5.49,13.72,1.43.2,4.44-6.93,5.77-8s2.09-1.27,2.91.15a3.4,3.4,0,0,1,.13,3.26c-1.64,4.23-6.12,12-7,25.65s-1.17,53.34,1.08,53.63c1.59.2,2.77-4.17,3.72-6,.7-1.34,2.63-2.12,3.86-.3.78,1.16-.16,3.83-1.16,6.66-3.61,10.22-11.33,27.84-13.34,32-1.52,3.13-7.06,5.46-10.41,3.76-5.3-2.7-19.25-6.5-19.25-31.75S636.53,114.84,635,106s-8-4.7-9.5-2.33-.74,44-.79,51.24a53.73,53.73,0,0,0,.24,7.23C625.69,167.42,628.69,165.84,629.44,162Zm-35.32,9.25a27.15,27.15,0,0,0,4.13,14.4c3,4.5,12.8,10.24,17.83,11.78a2.38,2.38,0,0,0,1.83-.67c1.84-1.74,1.17-3.68-1.43-4.61-5.32-1.9-10.39-4.71-13.61-9.51a23.19,23.19,0,0,1-3.91-13.2c-.15-10.09.17-123,0-124.46-.36-3.46.34-6.25-.47-9.63-.22-.9-1.53-3.09-3.25-1.7s-.39,7.84-.34,10c.16,6.23-.17,12.46-.22,18.69C594.62,72.91,594.61,159.51,594.12,171.26ZM646.6,187c3.43,5.41,10.4,8.27,12.73,8.5s4-2.81.39-4.23c-7.62-3.51-12.52-11.07-13-21.63s-1.89-53.88-1.79-64.54-10.45-15.49-13-12.78c-.56.59-1.54,2.87.46,3.07s7.49.45,8.36,10.84c.61,7.31.45,44.15,1,57.72S643.17,181.58,646.6,187Zm16.76-26.49c.05,8.56,3,11.5,4.5,12.5s2.3.57,2.5-1-3.75-4.17-3.5-12.17.29-35.12.08-46.92-.69-23.62-3.61-30.21c-2.62-5.9-10.41-9.82-11.36-7.76s4.77,2.66,8.72,9.59c2,4.47,2.46,16.24,2.8,29.52C664.06,136.2,663.31,151.94,663.36,160.5ZM619.28,67.69m6,100.35-8.35-7.65c.68,11,4,12.62,5.91,13.78.51.31,3.4-1.65,1.17-3.66s-3.28-1.6-3.54-13.85.33-112.48.08-122.23-5.71-16-7.17-16.54-1.45,2.24.23,5.75,2.8,4.18,3.27,15.68S616.27,149.38,616.95,160.38Zm2.37-90.88"/><path class="cls-1" d="M1003,74.42c4.92,2.25,10.05,10.55,11.64,19.72s-1.07,67.26-1.37,73.38c-.09,1.87-.51,6.51,1.48,6.57s1.43-2.6,1.48-3.48c.23-4.88,2.55-53.57,2.58-62.8,0-7.82-.52-18.31-4.08-24.36s-6.29-9.38-10-10.92-6.09-2-6.42-.94S1000.57,73.3,1003,74.42Zm-30.7,5.45c3,6.13,3.54,8.37,4.4,13.42.09.53.68.83.83.33,4.29-9.79,13.32-20.08,16.66-23.18s6.54-2.51,10.82-.71,13.14,7.47,14.93,17.38c.38,3.38,1.71,1,2.85-.71a38.57,38.57,0,0,0,2.31-4.18c1.44-2.87,4.25.68,3.51,2.28-.5,1.08-6.53,7.82-6.53,17.45-.09,5.67-1.42,68.5-1.66,72.54s-5.26,6.38-7.07,6.68c-6,1-11.86,2.85-16.68,6.31-4,2.86-6.9,7.36-10,11.39-1.57,2.08-4.32,1.82-6.18.31-1.27-1-2.59-2.28-3.68-2s-.85,19.57,0,20.32,14.09.62,21.83-5.5,8.12-16.23,7.08-19c-.27-.73-1.82-2.66-.46-3.49s2.18.78,2.63,1.41c1.8,2.52,1.25,5.79.75,9.08-.77,5.12-2.67,10.5-8.92,14.67s-15.25,5.83-19.83,6.25-5.87-.33-6.2-2.1-.2-17.94,0-24.11c.05-1.54.63-2.42,2.14-1.7a21.35,21.35,0,0,1,5.14,3c1.77,1.58,3.2,1.79,4.16.38s.1-2.35-1.33-3.42a91.74,91.74,0,0,0-9.17-6c-2.3-1.35-2.87,2-2.94,4.62-.26,10.37-.53,15.74-.62,26.11,0,2.13.09,7.24,2.3,7.94,1.33.42,1.82-.64,3.42-1.08s2.16.88,2.16,1.94-13.85,9.15-17.91,10-15.88-9.29-21.22-12.27a4.3,4.3,0,0,1-2-2.57c-.12-.61,1-1.54,1.72-2.22a48.1,48.1,0,0,0,3.8-3.59c.9-1.11,2.17-4.62.25-5.93a19.65,19.65,0,0,1-8.75-12.67c-1.47-6.8,0-15.88,3.67-20.5s6.72-7,6.58-11.42c-.19-6-.51-11.88-.24-17.87.16-3.5.17-7,.24-10.51.09-4.63.15-9.27.28-13.9.11-4.07.4-8.14.4-12.21,0-2.08.21-5.28-2.42-5.21s-3.21,3.23-3.3,5.36c-.08,1.88.13,3.79-.13,5.64a3,3,0,0,1-1.64,2.14,2.56,2.56,0,0,1-2.12-1.45,41.94,41.94,0,0,1,.73-14.89c1.42-6.17,9.9-26.19,12.1-30.88s7.27-5,11.43-2.56S969.3,73.75,972.33,79.88Zm-16.15-8.23c-1.92-.25-1.85.52-2.22.79.27.25.52.66.83.73,10.93,2.32,14.29,11.34,16.68,20.62s1.4,13.89,1.4,24.22-2.06,47.25-2.17,51.7c0,1,1.22,2.55,2.26,3.07,3.78,1.93,7.77,3.4,11.57,5.3,3.09,1.55,5.69,2.84,8.68,4.59,1.41.83,1.88.42,1.75-1.21-.21-2.58,1.84-67.43,2-75.72.1-4.95-2.61-7.43-5.94-9.93s-8.26-2.28-9.4-.52c-.38.59.75,2.6,1.32,2.52a8.94,8.94,0,0,1,9.89,8.83c0,3.9-.85,60.55-1.64,69.92-.14,1.71-2.46,2-4.11,1.17-3.59-1.9-7.14-3.88-10.79-5.65-1.82-.88-3.58-1.92-2.74-10.92s2.17-46.08,2.17-54.67-2.85-20.61-8.37-27.71S958.09,71.9,956.18,71.65ZM988,105.41c-.08-2.49-1.8-3.66-3.87-4.22S979,103.09,979,109s-1.36,42.26-1.9,53.54c-.1,2.1.34,5.31,2.26,6.29,2.24,1.15,3.39,1.83,5.62,3,1.87,1,2.68.27,2.69-1.84C987.71,165.68,988.12,108.29,988,105.41Zm-39.74,98.4c-1.22,10.44-.63,12.41-5.18,17a1.87,1.87,0,0,0,.32,2c5,2.77,12.32,7.74,13.9,8.91s2.76,1.08,3.76.17a3,3,0,0,0,.27-2.85c-2.18-2.17-10.7-6.92-11.25-8.2s1.2-6.85,1.38-8.56c2.51-15.68,2.68-93.4,2.57-93.41,0-3.69.14-7.4,0-11.08-.27-5.64-2.8-9.28-8-11.9-.82-.41-1.57.37-2.06.94-1,1.16.43,1.87,2.68,3.5s2.77,1.88,3.38,7.81S949.51,193.37,948.29,203.81Zm-2.6-25.64c-1-.51-2.34.75-3.17,1.33-4.91,3.45-4.47,19.88.2,22.89,1.75,1.13,2.3.45,2.3-1.31C945,195.41,946.67,178.69,945.69,178.17Z"/><path class="cls-1" d="M1222.71,69.18c5.93-.76,13.86,2.27,19.91,10.93s5.45,13.54,5.63,14.06c.48-.38,12.74-16.33,15.58-20s5.35-6.81,9.61-5.86c11.22,2.49,23.22,13.41,23.61,28.32s-3.36,67.86-2.28,71.56,4.08.71,4.74-1.39c.39-1.25,2.22-5.81,4.08-6.33s2.06,1.61,1.58,3.5c-.94,3.7-13.81,29.07-15.68,33.24-1.44,3.21-3.6,4.15-6.73,2.64-3.47-1.68-11.61-5.63-15.1-11.33s-4.52-10.91-5.63-25.64,1-48.58.63-53c-.45-5-2.55-6.2-7.49-6.22-3.06,0-5.54,3.17-6,5.67-.71,3.89-1.93,20.47-1.88,40.58s2.23,32,7,36.81c1.34,1.35.83,2.27-.67,2.84-1.89.71-3.81,1.34-5.75,1.89-6.41,1.83-11.85,5.39-17.28,9.11-.92.63-3.86-.57-5.12-1.73-4.87-4.5-10.83-6.42-17-8.07-.73-.2-1.9-.88-1.9-1.33,0-1.27.1-3.05.91-3.73,3.84-3.19,4-5.36,5.51-26.53s3.29-55.21.79-56.54-3.91,6.66-4.33,8c-.33,1-1.09,3.33-2.67,3.17s-2.51-2.35-2.72-3.29c-.36-1.65,1.51-12.33,3.23-16.54C1209.3,89.07,1216.58,69.17,1222.71,69.18Zm17.08,103.07c.75,7,3.76,13,5.29,13.25s-.41-3.4-1.72-14,1.65-65.49.21-73.65-1.79-11.61-5.13-15.44c-3.48-4-7.65-5.52-8.49-4.31s2.27,1.89,5.61,5.93c2.58,3.12,3.64,6.74,4.57,12.82S1239,165.21,1239.79,172.25Zm31.64-60.73c-.41-8.87-3.33-13-6.75-14.71s-5.6,0-5.67,1.33c-.1,2.08,5.08-.06,7.08,6.5s.09,33.85,0,54.48,6.89,29.29,11.89,32.43c3.22,2,6,3.46,6.5,1.58s-13.48-6.81-13.58-32.58C1270.82,131.15,1271.94,119.94,1271.42,111.52Zm-54.85,63.3c-.43,3-2.32,11.19-.56,12a86.84,86.84,0,0,1,10.3,5.74c2,1.39,5.37,2.54,6.5,1.26s-2.53-5.56-5.85-7.28-7-3.21-6.3-10,4.3-69,2.81-75.08-5.63-6.49-6.43-5,2.15,2.84,2.3,7.51S1218.51,161.09,1216.57,174.82Zm76.22-71.8c.13-6.12-.8-13-5.24-19.62s-12.26-10.51-13.13-9.38,4.76,3.63,9.51,9.25,4.9,9,6.18,19.72c.47,5.67-2.44,54.26-2.28,63.29,0,6.77,2.45,9.59,3.93,11.36s2.67-1.17,2.33-1.92c-.64-1.43-4.62-2.85-3.75-15.67S1292.76,112.6,1292.79,103Z"/><path class="cls-1" d="M1183,105.27a40.54,40.54,0,0,0-4.47-19A26.22,26.22,0,0,0,1166.4,75a8.11,8.11,0,0,0-3.77-1,1.54,1.54,0,0,0-1.25,1.25c-.06.72,1.75,1.69,5.06,2.69s9,8,12.25,16.75-1.52,57.1-1,68.23,4.26,10.76,7.88,10.51c3-.21,3.31,1.2,2,3.91-2.75,5.64-9.24,17.18-9.86,17.1-1.12-.15-3,1.27-4.15,1.09-6.56-1-16.24-11.27-16.5-22.33s2.42-58.54,2.07-67.53c-.24-6.1-3.5-9.67-7.92-12.58s-5.8-3.92-8.25-2.46c-.61.37-.67,1.38.33,2.38s2.92,1.75,5.92,3.42,6.56,8.14,6.33,13.75c-.38,9.13-.39,14.88-.93,24s-1.92,21.45-2.34,30.7a38.38,38.38,0,0,0,2.7,17.35c2.14,5,4.68,9.31,8.82,12.59a20.08,20.08,0,0,0,4.86,2.67,2.18,2.18,0,0,0,2.75-.94c1-1.56,2.66-7.35,2.66-7.35s2.46,4.34,2.46,4.91c-.3,2.65-4.85,8.7-5.48,8.48-3.66-1.28-8.26-2.37-11.78-6.08a38.64,38.64,0,0,1-8-13.52c-1.85-5.12-2.05-7.27-3.6-5.69-.74.75-6.55,12.9-9.67,18.78s-5.22,7.26-10,6.09c-6.29-1.54-26.63-9-26.63-33.72s12.16-35.33,18.13-40.13,13.8-8,13.19-8.07c-10.08-1.57-14.21-12.24-14.81-15.56a45.24,45.24,0,0,1-.5-9.88c.13-2-.65-2.54-2.67-2.78-8.07-1-11.83-8.62-10.35-13.87s6.44-9.16,11.06-8.81,9.42,2,10.25,8.67-1.06,7.65-1.92,9.25-.76,2.06,1,2.06c3.45,0,8.27,1.84,19-4.91s11.46-10.14,12.76-12c1-1.52,2.31-1.8,4.43-1.63,9.56.77,18.31,9.72,20.27,13.94s2.49,6.52,3.35,6.47,1.54-4.91,2.12-6.61c.33-1,1-2.79,1.85-2.62s1.65.93,1.51,2.82c-1.54,11.27-6.17,78.9-5,81.27s2.7.36,2.89-.48c.48-2.06.43-4.24.92-6.29.18-.75.91-2.36,1.95-1.92s1.11,1.86,1,2.73c-.21,2.5-.85,5-1.13,7.45-.21,1.86-.92,3.34-4.41,3.3s-5.12-4.51-5.37-8.4S1183,109.59,1183,105.27Zm-44.44,62.87c.59,1.83,2.74,3.62,4.6,4.35.78.31,4,.78,5.07-4.66s1.86-24.36,2.31-30.44c.42-5.82.72-11.65,1.06-17.48a9.61,9.61,0,0,0-.1-1.32c-.46.08-1.07-.2-4.14,1.92s-7.18,8-8.12,12.7C1136.5,146.77,1137.54,165,1138.56,168.14Zm0-51.24c2.06-.58,6.1-2,9.56-2.8,2.64-.6,3.12-2.63,3.05-4.61-.23-6.66-5.1-11.51-11.77-12.73-5.26-1-11,.08-16-2.84-1.8-1.05-1.83,2.17-2,5.75s1.15,6.48,4.07,10.64S1132.2,116.89,1138.55,116.9Zm-31.46,54.68c1.63,17,16.56,22.71,21,25.64,1,.63,4.24,1.11,4.59-.67s-.31-1.36-4.11-3.37a37.71,37.71,0,0,1-10.12-7.2c-6.62-6.46-8.17-17-6.52-25.65,1.7-9,3.89-20.87,11.86-26.76a9.68,9.68,0,0,0,2.65-2.6c.32-.78-.16-2-2.62-.69a25,25,0,0,0-8.74,7.09C1110.08,144.34,1105.47,154.61,1107.1,171.57Zm25.24-7.89c.83,9.67,5.36,14.27,8.35,14.28.54,0,1-1.27.07-2s-5.92-2.92-6.25-13.42.42-22.42,1.25-27,.9-5,.24-5.21-1.82.19-2.57,5S1131.5,154,1132.34,163.69ZM1117.5,88c.34-.22,1.7-.5,1.85-1.23s-.81-1.66-1.47-2.11c-1-.69-2.36-.91-3.42-1.57-1.78-1.11-3.47-2.37-5.16-3.63-.41-.31-.24-.92-.88-.59s-.66.55-.67,1.16C1107.71,83.46,1112.92,88,1117.5,88Z"/><path class="cls-1" d="M325.43,202.44a41.69,41.69,0,0,1-24-9.27c-8-6.75-10.62-14-11.12-16.25s-1-3.35-2.12-1.37-2.5,7.63-4.5,9.63-6,1.83-4.33-3.17,6.09-8,6.08-29.58.83-60.74,4.92-65.42S332.53,69.09,339,67.34s9.15,1.46,10.67,5.33c3.16,8.06,12.07,32.9,13.5,37.25s1.25,8.27-1.86,10c-9.9,5.53-36.94,19.63-37.3,20.41-.45,1-1.84,13.85,2.25,20.59s9.67,9.68,15.71,7.88,9.33-6.51,11.21-9c2.84-3.72,6.5-12.92,8.5-13.92s2.48,1.81,2.44,2.55c-.26,5.27-4.44,15.45-14.69,29.2S333.86,196.34,331.86,199,327.62,203,325.43,202.44ZM297,92.67c.27-.17-.34-2-1.86-2s-1.63.83-2.26,1.81c-.32.5-.07,1.28-.07,1.94,0,4.59-3.22,59.93.23,74.21s16.52,22.63,19.44,24c3.07,1.46,9.88,3.47,13.16,4.51.66.21,2-.91,2.76-1.65.2-.2-.51-1.63-1.12-1.87-2.63-1.06-10.82-2.33-17.79-8.74s-12.55-14-13.5-24S296.55,98.3,297,92.67Zm26.25,40.73c1,.54,12-5.21,12.67-6.46s-11.45-36.35-12.6-36.1S322.21,132.86,323.22,133.4Zm21.35-12.6c-1.82-4.68-2.38-6-2.38-6-.68-1.66-7.84-21-10-27-.29-.77-1.33-2.51-2.25-2.5-2,0-2.6,1.12-2,3.76S340,121,340.36,121.8a2.36,2.36,0,0,0,2.41,2.06A2.49,2.49,0,0,0,344.57,120.8Zm-.32-48.06c-1.77-.84-1.5.42-1.31,1.07.94,3.08,12.89,33.92,14.09,37.12a4.65,4.65,0,0,0,2.59,2.14c1.67.72.84-.75.76-1.24-.86-2.81-12.13-32.81-13-35.7A6.57,6.57,0,0,0,344.25,72.74Zm-29.81,65.43c.67,24.38,8.49,33.57,12,35.31,0,0,5.84,3.26,8.77,2.94,1-.11,1-2.86,1-2.86l-1-.23c-4.3-1.06-5.83-2.41-8.81-4.06-7.29-5.74-8.27-21.57-8.68-38.94s1.61-39.13,1.61-39.13a1.35,1.35,0,0,0-1.06-1.61c-1.09-.11-1.53.52-1.59,1.07A335.91,335.91,0,0,0,314.44,138.17Z"/><path class="cls-1" d="M456,0C467,0,481.42,8,486.76,10.73s11.39,2,14.41-1.21c2.51-2.64,2-4.66,5-6.8.48-.35,1.54-.58,1.87-.15a2.62,2.62,0,0,1,.26,2.16c-1.61,5-1.82,7.67-6.32,13.8S489.05,30.78,482.43,33s-18.14,3.32-24.58,1.41c-6.07-1.8-12.09-4.15-18.33-5.21-4.37-.74-10,.41-10.78,5.63a12,12,0,0,0,2.48,9.45c2.59,3.21,11.37,5.54,18.07,3.71,7.39-3,7.62-5.66,9.24-6.53s2.83-.69,3.58,0a2.85,2.85,0,0,1,.4,3.78c-1.09,1.64-3.19,3.81-7,6.58s-12,5.42-20.46,2.38-12.81-8-14.37-18.75,3.9-23.37,11.12-28.41S444.86,0,456,0Zm18.79,30c7.52-1.67,11-5.07,10.72-5.77-.32-.87-6.42,2.9-15.52,2.94S454.1,24.24,449,22.3s-9.27-2.82-14.35-1.5c-1.75.45-5,3-5,4.5,0,0,.64-1.26,5.77-2s13,2.95,19.5,4.88C461.07,29.93,467.22,31.66,474.74,30Z"/><path class="cls-1" d="M1088.19,164c-.25,1.58-2.67,7.42-9.25,21.42s-7.32,18-11.48,16.88c-9.09-2.45-18.77-12.21-19.89-20.42-.08-1.25-.84-1.63-1-1.12-.69,1.7-1.55,5.09-2.44,6.67a2.2,2.2,0,0,1-2.66,1.06c-1.19-.47-1.15-1.46-1.26-2.45a7.87,7.87,0,0,1,.68-3.1c2.72-8.38,5.08-12.29,5.33-30.54s.61-43.1.67-46.49c0-1.29.15-4.89-1.26-5.39s-1.81,1.24-1.88,2.14c-.2,2.49-.4,4.26-.69,6.73-.13,1.08-1.58,3.5-3.17,2.67s-1.63-3.07-1.67-4.29c-.37-11.75,11.06-31.35,13.38-36.26s4.34-4.56,8.31-3.64c6.29,1.45,10.71,4.8,14.64,9.23s4.71,10.31,5.08,11a21,21,0,0,0,1-2.42c.54-1.46,3.18-8.21,4-9.28.55-.76,3.8.56,3.19,3.4a29.24,29.24,0,0,1-1.79,4.61c-1.74,4.3-4.17,9.67-4.65,14.11s-.79,17.71-.79,34.79-1.81,32.88,1.33,33.92c1,.52,1.56-1.61,2.27-3.81C1084.56,162,1088.44,162.42,1088.19,164Zm-37.78-.28c0,9.14.13,17.13,5.88,24.52,1.14,1.47,6.25,6.7,9.37,7.22,2.47.41,4-.2,3.26-2.51-.39-1.2-5-2.84-9.48-8.77s-4.82-11.64-4.82-23.06,2-52.23,0-61.79c-.63-3-2.4-6.07-4.14-7.17s-2.6-1.33-3.41-.94c-1.33.64-1.54,2.17.29,3.62,3.49,2.77,4.16,6.68,4.19,10.82C1051.56,110.15,1050.41,154.58,1050.42,163.72Zm15.76-85a18,18,0,0,1,6.5,12.38c.29,5.17.07,46.31,0,53.94s-.29,16.78,0,20.22,3.42,5.92,4.38,5.17.3-2.64-.76-4-.78-3.1-.78-17.46.17-52.26,0-53.33c.36-8.12-2.68-16.22-7.78-19.68s-8-4-9.43-4.24a2.19,2.19,0,0,0-2.4,1.38c-.26.58,1.39,1.19,1.82,1.33A25.71,25.71,0,0,1,1066.18,78.69Z"/><path class="cls-1" d="M1158.68,76.15c3.22,0,3.22-5,0-5s-3.22,5,0,5Z"/><path class="cls-2" d="M1171.26,200.65s9.75-12.5,14.92-23.83,4.33-17.67,4.33-17.67"/></svg>