<?xml version="1.0" encoding="utf-8"?>
<!-- Generator: Adobe Illustrator 21.1.0, SVG Export Plug-In . SVG Version: 6.00 Build 0)  -->
<svg version="1.1" id="Layer_1" xmlns="http://www.w3.org/2000/svg" xmlns:xlink="http://www.w3.org/1999/xlink" x="0px" y="0px"
	 viewBox="0 0 386.6 500" style="enable-background:new 0 0 386.6 500;" xml:space="preserve">
<style type="text/css">
	.st0{fill:#FFFFFF;}
</style>
<g>
	<path class="st0" d="M345.9,221.1c37.8-36.9,49.3-94.4,34.3-131c-14.9-36.6-55-65.5-82.6-65.5c-10.7,0-25.7,4.9-40,10.9v-9.6H249
		v13.3c-19.3,8.7-35.6,18.1-35.6,18.1c-45.1,21.9-81.7,42.9-93.5,64.2c-11.8,21-13.4,38.1-13.4,38.1s-35.9-12.4-60.7-2.2
		c-20.3,8.3-42,24.2-45.5,62.6c-3.5,38.5,17.2,67.4,38.1,77.9c21,10.5,47.7,6,48,5.7c0-0.3-3.8-7.9-3.8-7.9
		c-4.4,0.3-16.2,0.3-16.2,0.3c-28.9,0-52.1-24.2-52.1-53.1c0-11.1,3.5-21.6,9.5-30.2c2.9-4.4,6.4-8.3,10.5-11.1
		c8.9-7,20.3-11.4,32.4-11.4c16.5,0,34.3,7,40.7,20.3c-1.9,0-17.2-2.2-30.5,8.3c-16.2,12.1-10.2,35.3-10.2,35.3
		c8.9-10.2,61-20.3,71.8,40.1c10.8,60.4-28,87.4-28,87.4c26.7-4.5,68.3-21.9,82.6-35.3c12.1-11.1,42.3-38.1,42.6-85.5
		c1-39.4-7-71.5-12.1-87.7c-3.8-12.1-8.9-24.8-18.4-48.3c-9.5-23.5-8.3-45.8,6-55.9c6.7-4.8,21.8-4.6,37.5,2.5v307.1
		c-21.3-7-92.2-14.6-142.4,19.4c-50.2,34-51.5,89-51.5,89c11.1-18.1,62.9-39.4,115.7-23.8c52.3,15.4,67.7,36.1,72,37.2l0.1,0.4
		c0,0,0.9-1,2.5-2.8c4.6-4.8,14.8-16,26.2-28.7c29.3-32.1,70.4-77.2,70.4-77.6c0-0.6-5.7-5.7-6.4-5.7c-0.2,0-9.5,10.2-22.2,24.2
		c-20.9-17.7-55.7-28.9-55.7-28.9V259.6C257.9,259.6,308.1,258.3,345.9,221.1z M257.5,249.7V75.8c15,9.1,29.3,24.8,36.2,48.6
		C309.4,177.9,290.6,245.9,257.5,249.7z"/>
	<path class="st0" d="M217.5-0.5c0,0-2.5,14.3-22.9,23.2c-20,9.2-51.5-7.3-80.4-13.4C84.9,3.3,43,4.3,27.4,35.4
		C11.8,66.6,19.5,98,49,113.9c29.9,15.9,65.2-8.3,65.2-8.3s2.2-12.1,1.9-12.1c-1.3,0-12.4,9.2-27,12.4c-5.1,1.3-9.9,1.9-14.9,1.9
		c-5.1,0.3-10.5-0.3-15.9-2.5c-14-5.4-21.9-18.1-18.1-27.7c3.8-9.9,13.7-13.7,32.1-7.6c18.4,6,32.7,15.3,68.3,11.4
		c35.6-3.8,61.7-32.4,71.2-51.2C221.3,11.6,217.5-0.5,217.5-0.5z"/>
</g>
</svg>
