<?xml version="1.0" encoding="utf-8"?>
<!-- Generator: Adobe Illustrator 16.0.4, SVG Export Plug-In . SVG Version: 6.00 Build 0)  -->
<!DOCTYPE svg PUBLIC "-//W3C//DTD SVG 1.1//EN" "http://www.w3.org/Graphics/SVG/1.1/DTD/svg11.dtd">
<svg version="1.1" id="Layer_1" xmlns="http://www.w3.org/2000/svg" xmlns:xlink="http://www.w3.org/1999/xlink" x="0px" y="0px"
	 width="99.398px" height="42.914px" viewBox="0 0 99.398 42.914" enable-background="new 0 0 99.398 42.914" xml:space="preserve">
<g enable-background="new    ">
	<path fill="#959494" d="M20.006,5.361v1.115c0,1.343-0.672,2.11-1.967,2.11c-1.295,0-1.967-0.768-1.967-2.11V2.11
		c0-1.343,0.672-2.11,1.967-2.11c1.295,0,1.967,0.768,1.967,2.11v0.816h-1.248v-0.9c0-0.6-0.264-0.827-0.684-0.827
		c-0.419,0-0.684,0.228-0.684,0.827v4.534c0,0.6,0.264,0.815,0.684,0.815c0.42,0,0.684-0.216,0.684-0.815V5.361H20.006z"/>
	<path fill="#959494" d="M20.703,2.11c0-1.343,0.708-2.11,2.003-2.11c1.295,0,2.003,0.768,2.003,2.11v4.366
		c0,1.343-0.708,2.11-2.003,2.11c-1.295,0-2.003-0.768-2.003-2.11V2.11z M22.023,6.561c0,0.6,0.264,0.827,0.684,0.827
		c0.42,0,0.684-0.228,0.684-0.827V2.026c0-0.6-0.264-0.827-0.684-0.827c-0.419,0-0.684,0.228-0.684,0.827V6.561z"/>
	<path fill="#959494" d="M28.346,6.057h0.024l0.888-5.961h1.835v8.396h-1.248V2.471h-0.024l-0.887,6.021h-1.248l-0.959-5.937h-0.024
		v5.937h-1.151V0.096h1.835L28.346,6.057z"/>
	<path fill="#959494" d="M34.838,6.057h0.024l0.888-5.961h1.835v8.396h-1.248V2.471h-0.024l-0.887,6.021h-1.248l-0.959-5.937h-0.024
		v5.937h-1.151V0.096h1.835L34.838,6.057z"/>
	<path fill="#959494" d="M39.866,3.634h1.811v1.199h-1.811v2.459h2.279v1.199h-3.598V0.096h3.598v1.199h-2.279V3.634z"/>
	<path fill="#959494" d="M44.162,2.41h-0.024v6.081h-1.188V0.096h1.655l1.331,5.025h0.024V0.096h1.175v8.396h-1.355L44.162,2.41z"/>
	<path fill="#959494" d="M51.913,5.361v1.115c0,1.343-0.672,2.11-1.967,2.11c-1.295,0-1.967-0.768-1.967-2.11V2.11
		c0-1.343,0.672-2.11,1.967-2.11c1.295,0,1.967,0.768,1.967,2.11v0.816h-1.247v-0.9c0-0.6-0.264-0.827-0.684-0.827
		c-0.419,0-0.684,0.228-0.684,0.827v4.534c0,0.6,0.264,0.815,0.684,0.815c0.42,0,0.684-0.216,0.684-0.815V5.361H51.913z"/>
	<path fill="#959494" d="M54.038,3.634h1.812v1.199h-1.812v2.459h2.278v1.199h-3.598V0.096h3.598v1.199h-2.278V3.634z"/>
	<path fill="#959494" d="M59.918,6.057h0.023l0.888-5.961h1.835v8.396h-1.248V2.471h-0.023l-0.887,6.021h-1.248l-0.959-5.937h-0.024
		v5.937h-1.151V0.096h1.835L59.918,6.057z"/>
	<path fill="#959494" d="M64.945,3.634h1.812v1.199h-1.812v2.459h2.279v1.199h-3.598V0.096h3.598v1.199h-2.279V3.634z"/>
	<path fill="#959494" d="M69.242,2.41h-0.023v6.081h-1.188V0.096h1.654l1.332,5.025h0.023V0.096h1.176v8.396h-1.355L69.242,2.41z"/>
	<path fill="#959494" d="M72.783,0.096h4.078v1.199h-1.38v7.196h-1.319V1.295h-1.379V0.096z"/>
</g>
<g>
	<g>
		<path fill="#18355E" d="M84.021,16.905l-1.076,7.327h2.195l-1.078-7.327H84.021z M72.384,16.41h-1.071v4.903h1.069
			c0.729,0,1.119-0.332,1.119-1.364v-2.175C73.503,16.74,73.108,16.41,72.384,16.41z M33.833,16.41h-1.077v4.903h1.077
			c0.729,0,1.118-0.332,1.118-1.364v-2.175C34.952,16.74,34.558,16.41,33.833,16.41z M0,10.75v21.559h99.398V10.75H0z M9.814,16.41
			h-2.38v12.423H5.157V16.41H2.774v-2.07h7.04V16.41z M17.994,28.832h-2.319v-6.211h-2.588v6.211h-2.275V14.339h2.272v6.213h2.588
			v-6.213h2.319L17.994,28.832L17.994,28.832z M25.861,16.41h-3.937v4.033h3.129v2.073h-3.129v4.243h3.937v2.068h-6.212v-14.49
			h6.212V16.41z M37.229,19.806c0,2.318-1.118,3.583-3.396,3.583h-1.077v5.444H30.48V14.339h3.354c2.276,0,3.396,1.264,3.396,3.582
			L37.229,19.806L37.229,19.806z M45.469,28.832H43.15v-6.211h-2.588v6.211h-2.276V14.339h2.276v6.213h2.588v-6.213h2.316
			L45.469,28.832L45.469,28.832z M49.401,28.832h-2.274V14.339h2.274V28.832z M57.083,28.832h-6.021V14.339h2.271v12.425h3.748
			L57.083,28.832L57.083,28.832z M64.104,28.832h-6.022V14.339h2.272v12.425h3.748v2.067L64.104,28.832L64.104,28.832z
			 M67.374,28.832h-2.272V14.339h2.272V28.832L67.374,28.832z M75.782,19.806c0,2.318-1.119,3.583-3.396,3.583h-1.074v5.444h-2.276
			V14.339h3.354c2.272,0,3.396,1.264,3.396,3.582L75.782,19.806L75.782,19.806z M79.116,28.832h-2.277V14.339h2.277V28.832z
			 M85.843,28.832l-0.393-2.629h-2.796l-0.396,2.629h-2.092l2.319-14.494h3.334l2.318,14.494H85.843z M96.403,28.832h-2.34
			l-2.797-10.497h-0.041v10.499h-2.052V14.339h2.854l2.3,8.677h0.041v-8.677h2.028L96.403,28.832L96.403,28.832z"/>
	</g>
</g>
<g>
	<path fill="#959494" d="M144.329,17.738c-0.42,0-0.687,0.228-0.687,0.827v0.9h-1.246v-0.816c0-1.343,0.672-2.11,1.967-2.11
		c1.296,0,1.968,0.768,1.968,2.11c0,1.116-0.408,2.016-1.631,3.322c-0.779,0.84-0.996,1.235-0.996,1.68c0,0.061,0,0.119,0.012,0.182
		h2.496v1.199h-3.813V24c0-0.938,0.336-1.645,1.317-2.675c1.009-1.067,1.298-1.727,1.298-2.626
		C145.013,17.942,144.747,17.738,144.329,17.738z"/>
	<path fill="#959494" d="M147.042,18.649c0-1.343,0.707-2.11,2.002-2.11s2.004,0.768,2.004,2.11v4.367
		c0,1.342-0.709,2.108-2.004,2.108s-2.002-0.769-2.002-2.108V18.649z M148.36,23.1c0,0.602,0.265,0.827,0.685,0.827
		s0.685-0.229,0.685-0.827v-4.534c0-0.6-0.265-0.827-0.685-0.827s-0.685,0.228-0.685,0.827V23.1z"/>
	<path fill="#959494" d="M152.716,17.69c1.021,0,1.248-0.492,1.451-1.056h0.89v8.397h-1.32v-6.405h-1.021V17.69z"/>
	<path fill="#959494" d="M157.841,22.318V23.1c0,0.6,0.265,0.813,0.685,0.813s0.685-0.215,0.685-0.813v-1.849
		c0-0.6-0.265-0.827-0.685-0.827s-0.685,0.228-0.685,0.827v0.252h-1.248l0.24-4.869h3.479v1.199h-2.304l-0.108,2.003h0.024
		c0.24-0.396,0.611-0.611,1.14-0.611c0.974,0,1.463,0.684,1.463,1.919v1.872c0,1.342-0.672,2.108-1.967,2.108
		s-1.967-0.769-1.967-2.108v-0.697H157.841L157.841,22.318z"/>
</g>
<g enable-background="new    ">
	<path fill="#959494" d="M26.922,39.784v1.115c0,1.343-0.672,2.11-1.967,2.11c-1.295,0-1.967-0.768-1.967-2.11v-4.366
		c0-1.343,0.672-2.11,1.967-2.11c1.295,0,1.967,0.768,1.967,2.11v0.816h-1.248v-0.9c0-0.6-0.264-0.827-0.684-0.827
		c-0.419,0-0.684,0.228-0.684,0.827v4.534c0,0.6,0.264,0.815,0.684,0.815c0.42,0,0.684-0.216,0.684-0.815v-1.199H26.922z"/>
	<path fill="#959494" d="M27.727,34.519h1.319v7.196h2.171v1.199h-3.49V34.519z"/>
	<path fill="#959494" d="M36.065,42.914h-1.332l-0.228-1.523h-1.619l-0.228,1.523h-1.211l1.343-8.396h1.931L36.065,42.914z
		 M33.055,40.252h1.271l-0.624-4.246h-0.024L33.055,40.252z"/>
	<path fill="#959494" d="M38.454,34.423c1.283,0,1.943,0.768,1.943,2.11v0.265H39.15v-0.349c0-0.6-0.24-0.827-0.66-0.827
		c-0.419,0-0.659,0.228-0.659,0.827c0,0.612,0.264,1.067,1.127,1.823c1.104,0.972,1.451,1.667,1.451,2.627
		c0,1.343-0.671,2.11-1.967,2.11s-1.967-0.768-1.967-2.11v-0.516h1.247v0.6c0,0.6,0.264,0.815,0.684,0.815
		c0.42,0,0.684-0.216,0.684-0.815c0-0.612-0.264-1.067-1.127-1.823c-1.104-0.972-1.451-1.667-1.451-2.627
		C36.511,35.19,37.171,34.423,38.454,34.423z"/>
	<path fill="#959494" d="M42.943,34.423c1.283,0,1.943,0.768,1.943,2.11v0.265h-1.248v-0.349c0-0.6-0.24-0.827-0.66-0.827
		c-0.419,0-0.659,0.228-0.659,0.827c0,0.612,0.264,1.067,1.127,1.823c1.104,0.972,1.451,1.667,1.451,2.627
		c0,1.343-0.671,2.11-1.967,2.11s-1.967-0.768-1.967-2.11v-0.516h1.247v0.6c0,0.6,0.264,0.815,0.684,0.815
		c0.42,0,0.684-0.216,0.684-0.815c0-0.612-0.264-1.067-1.127-1.823C41.347,38.188,41,37.493,41,36.533
		C41,35.19,41.659,34.423,42.943,34.423z"/>
	<path fill="#959494" d="M47.407,36.533c0-1.343,0.708-2.11,2.003-2.11s2.003,0.768,2.003,2.11v4.366c0,1.343-0.708,2.11-2.003,2.11
		s-2.003-0.768-2.003-2.11V36.533z M48.726,40.983c0,0.6,0.264,0.827,0.684,0.827c0.42,0,0.684-0.228,0.684-0.827v-4.534
		c0-0.6-0.264-0.827-0.684-0.827c-0.419,0-0.684,0.228-0.684,0.827V40.983z"/>
	<path fill="#959494" d="M53.586,38.249h1.703v1.199h-1.703v3.466h-1.318v-8.396h3.49v1.199h-2.172V38.249z"/>
	<path fill="#959494" d="M60.185,35.622c-0.42,0-0.684,0.228-0.684,0.827v0.9h-1.247v-0.816c0-1.343,0.672-2.11,1.968-2.11
		c1.295,0,1.967,0.768,1.967,2.11c0,1.116-0.408,2.016-1.632,3.322c-0.779,0.84-0.995,1.235-0.995,1.68c0,0.06,0,0.119,0.012,0.18
		h2.494v1.199h-3.813v-1.031c0-0.936,0.336-1.644,1.319-2.675c1.008-1.067,1.295-1.727,1.295-2.626
		C60.869,35.826,60.605,35.622,60.185,35.622z"/>
	<path fill="#959494" d="M62.898,36.533c0-1.343,0.709-2.11,2.004-2.11s2.002,0.768,2.002,2.11v4.366c0,1.343-0.707,2.11-2.002,2.11
		s-2.004-0.768-2.004-2.11V36.533z M64.219,40.983c0,0.6,0.264,0.827,0.684,0.827s0.684-0.228,0.684-0.827v-4.534
		c0-0.6-0.264-0.827-0.684-0.827s-0.684,0.228-0.684,0.827V40.983z"/>
	<path fill="#959494" d="M68.574,35.574c1.02,0,1.248-0.492,1.451-1.056h0.888v8.396h-1.319V36.51h-1.02V35.574z"/>
	<path fill="#959494" d="M73.698,40.203v0.78c0,0.6,0.265,0.815,0.684,0.815c0.42,0,0.684-0.216,0.684-0.815v-1.848
		c0-0.6-0.264-0.827-0.684-0.827c-0.419,0-0.684,0.228-0.684,0.827v0.252h-1.247l0.24-4.869h3.478v1.199h-2.303l-0.108,2.003h0.024
		c0.239-0.396,0.612-0.611,1.14-0.611c0.971,0,1.463,0.684,1.463,1.919v1.871c0,1.343-0.672,2.11-1.967,2.11
		s-1.967-0.768-1.967-2.11v-0.696H73.698z"/>
</g>
</svg>
