<?xml version="1.0" encoding="utf-8"?>
<!-- Generator: Adobe Illustrator 16.0.4, SVG Export Plug-In . SVG Version: 6.00 Build 0)  -->
<!DOCTYPE svg PUBLIC "-//W3C//DTD SVG 1.1//EN" "http://www.w3.org/Graphics/SVG/1.1/DTD/svg11.dtd">
<svg version="1.1" id="Layer_1" xmlns="http://www.w3.org/2000/svg" xmlns:xlink="http://www.w3.org/1999/xlink" x="0px" y="0px"
	 width="229.266px" height="21.559px" viewBox="0 0 229.266 21.559" enable-background="new 0 0 229.266 21.559"
	 xml:space="preserve">
<g>
	<path fill="#18345E" d="M151.162,6.156l-1.076,7.325h2.195l-1.078-7.325H151.162z M139.526,5.66h-1.07v4.901h1.068
		c0.729,0,1.119-0.332,1.119-1.362V7.024C140.645,5.99,140.25,5.66,139.526,5.66z M100.976,5.66h-1.077v4.901h1.077
		c0.729,0,1.118-0.332,1.118-1.362V7.024C102.095,5.99,101.7,5.66,100.976,5.66z M67.143,0v21.559h99.398V0H67.143z M76.955,5.66
		h-2.38v12.423H72.3V5.66h-2.385V3.59h7.04V5.66z M85.137,18.082h-2.319v-6.211H80.23v6.211h-2.275V3.589h2.271v6.214h2.588V3.589
		h2.319L85.137,18.082L85.137,18.082z M93.002,5.66h-3.938v4.031h3.128v2.072h-3.128v4.244h3.938v2.068H86.79V3.588h6.212V5.66z
		 M104.37,9.055c0,2.317-1.118,3.583-3.396,3.583h-1.077v5.443h-2.274V3.589h3.354c2.275,0,3.396,1.265,3.396,3.582L104.37,9.055
		L104.37,9.055z M112.612,18.082h-2.317v-6.211h-2.588v6.211h-2.275V3.589h2.275v6.214h2.588V3.589h2.315L112.612,18.082
		L112.612,18.082z M116.543,18.082h-2.274V3.589h2.274V18.082z M124.225,18.082h-6.021V3.589h2.271v12.425h3.748L124.225,18.082
		L124.225,18.082z M131.246,18.082h-6.022V3.589h2.272v12.425h3.748v2.068H131.246z M134.516,18.082h-2.271V3.589h2.271V18.082
		L134.516,18.082z M142.925,9.055c0,2.317-1.119,3.583-3.396,3.583h-1.072v5.443h-2.276V3.589h3.354
		c2.271,0,3.396,1.265,3.396,3.582L142.925,9.055L142.925,9.055z M146.259,18.082h-2.278V3.589h2.277L146.259,18.082L146.259,18.082
		z M152.985,18.082l-0.393-2.629h-2.795l-0.396,2.629h-2.092l2.319-14.494h3.334l2.316,14.494H152.985z M163.545,18.082h-2.34
		l-2.797-10.497h-0.041v10.498h-2.053V3.589h2.855l2.299,8.677h0.041V3.589h2.028L163.545,18.082L163.545,18.082z"/>
</g>
<g enable-background="new    ">
	<path fill="#949494" d="M7.306,11.293v1.115c0,1.343-0.672,2.109-1.967,2.109s-1.967-0.768-1.967-2.109V8.042
		c0-1.343,0.672-2.11,1.967-2.11S7.306,6.7,7.306,8.042v0.815H6.058V7.958c0-0.601-0.264-0.827-0.684-0.827
		c-0.419,0-0.685,0.228-0.685,0.827v4.534c0,0.6,0.265,0.814,0.685,0.814s0.684-0.216,0.684-0.814v-1.199H7.306z"/>
	<path fill="#949494" d="M8.004,8.042c0-1.343,0.708-2.11,2.003-2.11S12.01,6.7,12.01,8.042v4.366c0,1.343-0.708,2.109-2.003,2.109
		s-2.003-0.768-2.003-2.109V8.042z M9.323,12.492c0,0.6,0.264,0.826,0.684,0.826s0.684-0.228,0.684-0.826V7.958
		c0-0.601-0.264-0.827-0.684-0.827c-0.419,0-0.684,0.228-0.684,0.827V12.492z"/>
	<path fill="#949494" d="M15.646,11.99h0.024l0.888-5.962h1.835v8.396h-1.248V8.403h-0.023l-0.888,6.021h-1.248l-0.959-5.938h-0.023
		v5.938h-1.151V6.028h1.835L15.646,11.99z"/>
	<path fill="#949494" d="M22.138,11.99h0.024l0.888-5.962h1.835v8.396h-1.248V8.403h-0.024l-0.887,6.021h-1.248l-0.959-5.938h-0.023
		v5.938h-1.151V6.028h1.835L22.138,11.99z"/>
	<path fill="#949494" d="M27.166,9.566h1.811v1.199h-1.811v2.459h2.278v1.199h-3.598V6.028h3.598v1.199h-2.278V9.566z"/>
	<path fill="#949494" d="M31.463,8.342h-0.024v6.081h-1.188V6.028h1.655l1.33,5.025h0.024V6.028h1.175v8.396h-1.354L31.463,8.342z"
		/>
	<path fill="#949494" d="M39.213,11.293v1.115c0,1.343-0.672,2.109-1.967,2.109s-1.968-0.768-1.968-2.109V8.042
		c0-1.343,0.673-2.11,1.968-2.11s1.967,0.769,1.967,2.11v0.815h-1.248V7.958c0-0.601-0.264-0.827-0.684-0.827
		s-0.685,0.228-0.685,0.827v4.534c0,0.6,0.264,0.814,0.685,0.814c0.42,0,0.684-0.216,0.684-0.814v-1.199H39.213z"/>
	<path fill="#949494" d="M41.338,9.566h1.811v1.199h-1.811v2.459h2.279v1.199h-3.599V6.028h3.599v1.199h-2.279V9.566z"/>
	<path fill="#949494" d="M47.218,11.99h0.024l0.888-5.962h1.835v8.396h-1.248V8.403h-0.024l-0.887,6.021h-1.248l-0.959-5.938h-0.023
		v5.938h-1.151V6.028h1.835L47.218,11.99z"/>
	<path fill="#949494" d="M52.246,9.566h1.811v1.199h-1.811v2.459h2.278v1.199h-3.598V6.028h3.598v1.199h-2.278V9.566z"/>
	<path fill="#949494" d="M56.542,8.342h-0.024v6.081H55.33V6.028h1.654l1.331,5.025h0.024V6.028h1.175v8.396H58.16L56.542,8.342z"/>
	<path fill="#949494" d="M60.083,6.028h4.078v1.199h-1.379v7.196h-1.319V7.227h-1.379L60.083,6.028L60.083,6.028z"/>
</g>
<g>
	<path fill="#949494" d="M219.763,8.208c0-1.415,0.647-2.183,2.016-2.183c1.295,0,1.967,0.768,1.967,2.111v0.216h-1.248v-0.3
		c0-0.6-0.264-0.828-0.684-0.828c-0.468,0-0.731,0.228-0.731,1.031V9.78h0.024c0.228-0.48,0.611-0.732,1.199-0.732
		c0.972,0,1.463,0.684,1.463,1.919v1.536c0,1.344-0.707,2.111-2.003,2.111c-1.295,0-2.003-0.768-2.003-2.111V8.208z M221.082,11.075
		v1.511c0,0.6,0.264,0.816,0.684,0.816s0.684-0.217,0.684-0.816v-1.511c0-0.6-0.264-0.828-0.684-0.828
		S221.082,10.475,221.082,11.075z"/>
	<path fill="#949494" d="M174.306,11.293v1.115c0,1.343-0.672,2.109-1.967,2.109c-1.296,0-1.968-0.768-1.968-2.109V8.042
		c0-1.343,0.672-2.11,1.968-2.11c1.295,0,1.967,0.769,1.967,2.11v0.815h-1.247V7.958c0-0.601-0.264-0.827-0.684-0.827
		s-0.685,0.228-0.685,0.827v4.534c0,0.6,0.265,0.814,0.685,0.814s0.684-0.216,0.684-0.814v-1.199H174.306z"/>
	<path fill="#949494" d="M175.112,6.028h1.319v7.196h2.171v1.199h-3.49V6.028z"/>
	<path fill="#949494" d="M183.449,14.423h-1.332L181.89,12.9h-1.619l-0.229,1.523h-1.211l1.343-8.396h1.931L183.449,14.423z
		 M180.44,11.761h1.271l-0.624-4.246h-0.023L180.44,11.761z"/>
	<path fill="#949494" d="M185.838,5.932c1.283,0,1.942,0.769,1.942,2.11v0.265h-1.247V7.958c0-0.601-0.239-0.827-0.659-0.827
		c-0.419,0-0.659,0.228-0.659,0.827c0,0.611,0.264,1.066,1.127,1.823c1.104,0.972,1.451,1.667,1.451,2.627
		c0,1.343-0.672,2.109-1.967,2.109s-1.968-0.768-1.968-2.109v-0.517h1.247v0.601c0,0.6,0.266,0.814,0.685,0.814
		c0.42,0,0.685-0.216,0.685-0.814c0-0.612-0.265-1.067-1.128-1.823c-1.104-0.973-1.451-1.667-1.451-2.627
		C183.896,6.699,184.555,5.932,185.838,5.932z"/>
	<path fill="#949494" d="M190.326,5.932c1.282,0,1.942,0.769,1.942,2.11v0.265h-1.248V7.958c0-0.601-0.238-0.827-0.659-0.827
		c-0.419,0-0.658,0.228-0.658,0.827c0,0.611,0.264,1.066,1.127,1.823c1.104,0.972,1.451,1.667,1.451,2.627
		c0,1.343-0.673,2.109-1.968,2.109s-1.967-0.768-1.967-2.109v-0.517h1.247v0.601c0,0.6,0.265,0.814,0.684,0.814
		c0.421,0,0.686-0.216,0.686-0.814c0-0.612-0.265-1.067-1.128-1.823c-1.104-0.973-1.451-1.667-1.451-2.627
		C188.384,6.699,189.043,5.932,190.326,5.932z"/>
	<path fill="#949494" d="M194.791,8.042c0-1.343,0.708-2.11,2.003-2.11c1.296,0,2.003,0.769,2.003,2.11v4.366
		c0,1.343-0.707,2.109-2.003,2.109c-1.295,0-2.003-0.768-2.003-2.109V8.042z M196.111,12.492c0,0.6,0.266,0.826,0.685,0.826
		c0.42,0,0.684-0.228,0.684-0.826V7.958c0-0.601-0.264-0.827-0.684-0.827c-0.419,0-0.685,0.228-0.685,0.827V12.492z"/>
	<path fill="#949494" d="M200.971,9.758h1.703v1.199h-1.703v3.466h-1.319V6.028h3.489v1.199h-2.17V9.758z"/>
	<path fill="#949494" d="M207.571,7.131c-0.42,0-0.684,0.228-0.684,0.827v0.899h-1.248V8.042c0-1.343,0.672-2.11,1.967-2.11
		c1.296,0,1.967,0.769,1.967,2.11c0,1.116-0.406,2.016-1.631,3.322c-0.778,0.84-0.995,1.234-0.995,1.68c0,0.06,0,0.119,0.013,0.18
		h2.495v1.199h-3.814v-1.031c0-0.936,0.336-1.644,1.319-2.675c1.008-1.067,1.296-1.727,1.296-2.626
		C208.254,7.335,207.99,7.131,207.571,7.131z"/>
	<path fill="#949494" d="M210.283,8.042c0-1.343,0.707-2.11,2.002-2.11c1.296,0,2.004,0.769,2.004,2.11v4.366
		c0,1.343-0.708,2.109-2.004,2.109c-1.295,0-2.002-0.768-2.002-2.109V8.042z M211.602,12.492c0,0.6,0.266,0.826,0.685,0.826
		c0.42,0,0.684-0.228,0.684-0.826V7.958c0-0.601-0.264-0.827-0.684-0.827c-0.419,0-0.685,0.228-0.685,0.827V12.492z"/>
	<path fill="#949494" d="M215.959,7.083c1.02,0,1.246-0.492,1.451-1.057h0.887v8.396h-1.318V8.019h-1.02V7.083z"/>
</g>
</svg>
