<?xml version="1.0" encoding="utf-8"?>
<!-- Generator: Adobe Illustrator 16.0.4, SVG Export Plug-In . SVG Version: 6.00 Build 0)  -->
<!DOCTYPE svg PUBLIC "-//W3C//DTD SVG 1.1//EN" "http://www.w3.org/Graphics/SVG/1.1/DTD/svg11.dtd">
<svg version="1.1" id="Layer_1" xmlns="http://www.w3.org/2000/svg" xmlns:xlink="http://www.w3.org/1999/xlink" x="0px" y="0px"
	 width="99.398px" height="42.914px" viewBox="0 0 99.398 42.914" enable-background="new 0 0 99.398 42.914" xml:space="preserve">
<g>
	<path fill="#949494" d="M72.392,36.51c0-1.416,0.646-2.184,2.016-2.184c1.295,0,1.967,0.768,1.967,2.111v0.216h-1.248v-0.3
		c0-0.6-0.264-0.828-0.684-0.828c-0.469,0-0.732,0.229-0.732,1.031v1.523h0.025c0.227-0.479,0.611-0.731,1.199-0.731
		c0.971,0,1.463,0.685,1.463,1.919v1.535c0,1.344-0.707,2.111-2.004,2.111c-1.295,0-2.002-0.768-2.002-2.111V36.51z M73.711,39.375
		v1.512c0,0.6,0.264,0.816,0.684,0.816s0.684-0.217,0.684-0.816v-1.512c0-0.6-0.264-0.826-0.684-0.826S73.711,38.775,73.711,39.375z
		"/>
	<path fill="#949494" d="M26.935,39.594v1.115c0,1.344-0.672,2.109-1.967,2.109c-1.296,0-1.968-0.768-1.968-2.109v-4.365
		c0-1.344,0.672-2.111,1.968-2.111c1.295,0,1.967,0.77,1.967,2.111v0.814h-1.247V36.26c0-0.602-0.264-0.828-0.684-0.828
		S24.32,35.66,24.32,36.26v4.533c0,0.6,0.265,0.814,0.685,0.814s0.684-0.215,0.684-0.814v-1.199H26.935z"/>
	<path fill="#949494" d="M27.74,34.328h1.319v7.197h2.171v1.199h-3.49V34.328z"/>
	<path fill="#949494" d="M36.078,42.725h-1.332l-0.228-1.523H32.9l-0.229,1.523H31.46l1.343-8.396h1.931L36.078,42.725z
		 M33.069,40.062h1.271l-0.624-4.246h-0.023L33.069,40.062z"/>
	<path fill="#949494" d="M38.467,34.232c1.283,0,1.942,0.77,1.942,2.111v0.264h-1.247V36.26c0-0.602-0.239-0.828-0.659-0.828
		c-0.419,0-0.659,0.229-0.659,0.828c0,0.611,0.264,1.066,1.127,1.822c1.104,0.973,1.451,1.668,1.451,2.627
		c0,1.344-0.672,2.109-1.967,2.109s-1.968-0.768-1.968-2.109v-0.516h1.247v0.6c0,0.6,0.266,0.814,0.685,0.814
		c0.42,0,0.685-0.215,0.685-0.814c0-0.611-0.265-1.066-1.128-1.822c-1.104-0.973-1.451-1.668-1.451-2.627
		C36.525,35,37.184,34.232,38.467,34.232z"/>
	<path fill="#949494" d="M42.955,34.232c1.282,0,1.942,0.77,1.942,2.111v0.264H43.65V36.26c0-0.602-0.238-0.828-0.659-0.828
		c-0.419,0-0.658,0.229-0.658,0.828c0,0.611,0.264,1.066,1.127,1.822c1.104,0.973,1.451,1.668,1.451,2.627
		c0,1.344-0.673,2.109-1.968,2.109s-1.967-0.768-1.967-2.109v-0.516h1.247v0.6c0,0.6,0.265,0.814,0.684,0.814
		c0.421,0,0.686-0.215,0.686-0.814c0-0.611-0.265-1.066-1.128-1.822c-1.104-0.973-1.451-1.668-1.451-2.627
		C41.013,35,41.672,34.232,42.955,34.232z"/>
	<path fill="#949494" d="M47.42,36.344c0-1.344,0.708-2.111,2.003-2.111c1.295,0,2.002,0.77,2.002,2.111v4.365
		c0,1.344-0.707,2.109-2.002,2.109c-1.295,0-2.003-0.768-2.003-2.109V36.344z M48.74,40.793c0,0.6,0.266,0.826,0.685,0.826
		c0.42,0,0.684-0.227,0.684-0.826V36.26c0-0.602-0.264-0.828-0.684-0.828c-0.419,0-0.685,0.229-0.685,0.828V40.793z"/>
	<path fill="#949494" d="M53.599,38.059h1.703v1.199h-1.703v3.467h-1.318v-8.396h3.488v1.199h-2.17V38.059z"/>
	<path fill="#949494" d="M60.199,35.432c-0.42,0-0.684,0.229-0.684,0.828v0.898h-1.248v-0.814c0-1.344,0.672-2.111,1.967-2.111
		c1.297,0,1.967,0.77,1.967,2.111c0,1.115-0.406,2.016-1.631,3.322c-0.777,0.84-0.994,1.234-0.994,1.68c0,0.059,0,0.119,0.012,0.18
		h2.496v1.199h-3.814v-1.031c0-0.936,0.336-1.645,1.318-2.676c1.008-1.066,1.297-1.727,1.297-2.625
		C60.883,35.637,60.619,35.432,60.199,35.432z"/>
	<path fill="#949494" d="M62.912,36.344c0-1.344,0.707-2.111,2.002-2.111c1.297,0,2.004,0.77,2.004,2.111v4.365
		c0,1.344-0.707,2.109-2.004,2.109c-1.295,0-2.002-0.768-2.002-2.109V36.344z M64.23,40.793c0,0.6,0.266,0.826,0.686,0.826
		s0.684-0.227,0.684-0.826V36.26c0-0.602-0.264-0.828-0.684-0.828S64.23,35.66,64.23,36.26V40.793z"/>
	<path fill="#949494" d="M68.588,35.385c1.02,0,1.246-0.492,1.451-1.057h0.887v8.396h-1.318V36.32h-1.02V35.385z"/>
</g>
<g enable-background="new    ">
	<path fill="#959494" d="M23.238,5.361v1.115c0,1.343-0.672,2.11-1.967,2.11s-1.967-0.768-1.967-2.11V2.11
		c0-1.343,0.672-2.11,1.967-2.11s1.967,0.768,1.967,2.11v0.816H21.99v-0.9c0-0.6-0.264-0.827-0.684-0.827
		c-0.419,0-0.685,0.228-0.685,0.827V6.56c0,0.6,0.265,0.815,0.685,0.815S21.99,7.159,21.99,6.56V5.361H23.238z"/>
	<path fill="#959494" d="M23.935,2.11c0-1.343,0.708-2.11,2.003-2.11s2.003,0.768,2.003,2.11v4.366c0,1.343-0.708,2.11-2.003,2.11
		s-2.003-0.768-2.003-2.11V2.11z M25.256,6.561c0,0.6,0.265,0.827,0.685,0.827s0.685-0.228,0.685-0.827V2.026
		c0-0.6-0.265-0.827-0.685-0.827c-0.419,0-0.685,0.228-0.685,0.827V6.561z"/>
	<path fill="#959494" d="M31.579,6.057h0.023l0.888-5.961h1.835v8.396h-1.247V2.471h-0.023l-0.888,6.021h-1.248L29.96,2.555h-0.023
		v5.937h-1.151V0.096h1.836L31.579,6.057z"/>
	<path fill="#959494" d="M38.07,6.057h0.023l0.889-5.961h1.835v8.396h-1.248V2.471h-0.023l-0.888,6.021h-1.247l-0.96-5.937h-0.022
		v5.937h-1.151V0.096h1.835L38.07,6.057z"/>
	<path fill="#959494" d="M43.098,3.634h1.811v1.199h-1.811v2.459h2.278v1.199h-3.599V0.096h3.599v1.199h-2.278V3.634z"/>
	<path fill="#959494" d="M47.394,2.41h-0.023v6.081h-1.188V0.096h1.654l1.331,5.025h0.023V0.096h1.175v8.396h-1.354L47.394,2.41z"/>
	<path fill="#959494" d="M55.145,5.361v1.115c0,1.343-0.672,2.11-1.967,2.11c-1.296,0-1.968-0.768-1.968-2.11V2.11
		c0-1.343,0.672-2.11,1.968-2.11c1.295,0,1.967,0.768,1.967,2.11v0.816h-1.247v-0.9c0-0.6-0.265-0.827-0.685-0.827
		c-0.419,0-0.685,0.228-0.685,0.827V6.56c0,0.6,0.265,0.815,0.685,0.815s0.685-0.216,0.685-0.815V5.361H55.145z"/>
	<path fill="#959494" d="M57.27,3.634h1.812v1.199H57.27v2.459h2.277v1.199H55.95V0.096h3.599v1.199H57.27V3.634z"/>
	<path fill="#959494" d="M63.15,6.057h0.022l0.889-5.961h1.835v8.396h-1.248V2.471h-0.022l-0.888,6.021H62.49l-0.959-5.937h-0.023
		v5.937h-1.15V0.096h1.835L63.15,6.057z"/>
	<path fill="#959494" d="M68.177,3.634h1.812v1.199h-1.812v2.459h2.279v1.199h-3.599V0.096h3.599v1.199h-2.279V3.634z"/>
	<path fill="#959494" d="M72.474,2.41h-0.023v6.081h-1.188V0.096h1.653l1.332,5.025h0.022V0.096h1.176v8.396h-1.354L72.474,2.41z"/>
	<path fill="#959494" d="M76.015,0.096h4.077v1.199h-1.38v7.196h-1.318V1.295h-1.379V0.096L76.015,0.096z"/>
</g>
<g>
	<g>
		<path fill="#18355E" d="M84.021,16.905l-1.076,7.328h2.195l-1.078-7.328H84.021z M72.384,16.41h-1.069v4.903h1.067
			c0.729,0,1.119-0.332,1.119-1.364v-2.175C73.503,16.74,73.108,16.41,72.384,16.41z M33.833,16.41h-1.077v4.903h1.077
			c0.729,0,1.118-0.332,1.118-1.364v-2.175C34.952,16.74,34.558,16.41,33.833,16.41z M0,10.75v21.559h99.398V10.75H0z M9.814,16.41
			h-2.38v12.423H5.157V16.41H2.774v-2.07h7.04V16.41z M17.994,28.832h-2.319v-6.211h-2.588v6.211h-2.273V14.339h2.271v6.213h2.588
			v-6.213h2.319L17.994,28.832L17.994,28.832z M25.861,16.41h-3.938v4.033h3.131v2.073h-3.131v4.243h3.938v2.068h-6.212v-14.49
			h6.212V16.41z M37.229,19.806c0,2.318-1.118,3.583-3.396,3.583h-1.077v5.444H30.48V14.339h3.354c2.276,0,3.396,1.264,3.396,3.582
			L37.229,19.806L37.229,19.806z M45.469,28.832H43.15v-6.211h-2.588v6.211h-2.276V14.339h2.276v6.213h2.588v-6.213h2.314
			L45.469,28.832L45.469,28.832z M49.401,28.832h-2.274V14.339h2.274V28.832z M57.083,28.832h-6.021V14.339h2.271v12.425h3.748
			L57.083,28.832L57.083,28.832z M64.104,28.832h-6.022V14.339h2.272v12.425h3.748v2.067L64.104,28.832L64.104,28.832z
			 M67.374,28.832h-2.271V14.339h2.271V28.832L67.374,28.832z M75.782,19.806c0,2.318-1.119,3.583-3.396,3.583h-1.074v5.444h-2.276
			V14.339h3.354c2.271,0,3.396,1.264,3.396,3.582L75.782,19.806L75.782,19.806z M79.116,28.832h-2.277V14.339h2.277V28.832z
			 M85.843,28.832l-0.393-2.629h-2.796l-0.396,2.629h-2.092l2.319-14.494h3.334l2.318,14.494H85.843z M96.403,28.832h-2.34
			l-2.797-10.497h-0.041v10.499h-2.054V14.339h2.854l2.3,8.677h0.041v-8.677h2.028L96.403,28.832L96.403,28.832z"/>
	</g>
</g>
</svg>
