<?xml version="1.0" encoding="utf-8"?>
<!-- Generator: Adobe Illustrator 16.0.4, SVG Export Plug-In . SVG Version: 6.00 Build 0)  -->
<!DOCTYPE svg PUBLIC "-//W3C//DTD SVG 1.1//EN" "http://www.w3.org/Graphics/SVG/1.1/DTD/svg11.dtd">
<svg version="1.1" id="Layer_1" xmlns="http://www.w3.org/2000/svg" xmlns:xlink="http://www.w3.org/1999/xlink" x="0px" y="0px"
	 width="229.266px" height="21.559px" viewBox="0 0 229.266 21.559" enable-background="new 0 0 229.266 21.559"
	 xml:space="preserve">
<g>
	<path fill="#18345E" d="M151.162,6.155l-1.076,7.327h2.195l-1.078-7.327H151.162z M139.526,5.66h-1.072v4.903h1.07
		c0.729,0,1.119-0.332,1.119-1.364V7.024C140.645,5.99,140.25,5.66,139.526,5.66z M100.976,5.66h-1.077v4.903h1.077
		c0.729,0,1.118-0.332,1.118-1.364V7.024C102.095,5.99,101.7,5.66,100.976,5.66z M67.143,0v21.559h99.398V0H67.143z M76.955,5.66
		h-2.38v12.423H72.3V5.66h-2.385V3.59h7.04V5.66z M85.137,18.082h-2.319v-6.211H80.23v6.211h-2.277V3.589h2.273v6.214h2.588V3.589
		h2.319L85.137,18.082L85.137,18.082z M93.002,5.66h-3.936v4.033h3.128v2.072h-3.128v4.244h3.936v2.068H86.79V3.588h6.212V5.66z
		 M104.37,9.055c0,2.317-1.118,3.583-3.396,3.583h-1.077v5.443h-2.276V3.589h3.354c2.275,0,3.396,1.265,3.396,3.582L104.37,9.055
		L104.37,9.055z M112.612,18.082h-2.319v-6.211h-2.588v6.211h-2.275V3.589h2.275v6.214h2.588V3.589h2.317L112.612,18.082
		L112.612,18.082z M116.543,18.082h-2.274V3.589h2.274V18.082z M124.225,18.082h-6.022V3.589h2.272v12.425h3.748L124.225,18.082
		L124.225,18.082z M131.246,18.082h-6.022V3.589h2.272v12.425h3.748v2.068H131.246z M134.516,18.082h-2.273V3.589h2.273V18.082
		L134.516,18.082z M142.925,9.055c0,2.317-1.119,3.583-3.396,3.583h-1.074v5.443h-2.276V3.589h3.354
		c2.273,0,3.396,1.265,3.396,3.582L142.925,9.055L142.925,9.055z M146.259,18.082h-2.278V3.589h2.277L146.259,18.082L146.259,18.082
		z M152.985,18.082l-0.393-2.629h-2.795l-0.396,2.629h-2.092l2.319-14.494h3.334l2.318,14.494H152.985z M163.545,18.082h-2.34
		l-2.797-10.497h-0.041v10.498h-2.051V3.589h2.855l2.299,8.677h0.041V3.589h2.028L163.545,18.082L163.545,18.082z"/>
</g>
<text transform="matrix(1 0 0 1 3.0002 14.4226)" fill="#949494" font-family="'BebasNeue'" font-size="12">COMMENCEMENT</text>
<text transform="matrix(1 0 0 1 170.0002 14.4226)" fill="#949494" font-family="'BebasNeue'" font-size="12">CLASS of 2015</text>
</svg>
