<?xml version="1.0" encoding="utf-8"?>
<!-- Generator: Adobe Illustrator 16.0.4, SVG Export Plug-In . SVG Version: 6.00 Build 0)  -->
<!DOCTYPE svg PUBLIC "-//W3C//DTD SVG 1.1//EN" "http://www.w3.org/Graphics/SVG/1.1/DTD/svg11.dtd">
<svg version="1.1" id="Layer_1" xmlns="http://www.w3.org/2000/svg" xmlns:xlink="http://www.w3.org/1999/xlink" x="0px" y="0px"
	 width="99.398px" height="42.914px" viewBox="0 0 99.398 42.914" enable-background="new 0 0 99.398 42.914" xml:space="preserve">
<text transform="matrix(1 0 0 1 15.7 8.4912)" fill="#959494" font-family="'BebasNeue'" font-size="12">COMMENCEMENT</text>
<g>
	<g>
		<path fill="#18355E" d="M84.021,16.905l-1.076,7.327h2.195l-1.078-7.327H84.021z M72.384,16.41h-1.072v4.903h1.07
			c0.729,0,1.119-0.332,1.119-1.364v-2.175C73.503,16.74,73.108,16.41,72.384,16.41z M33.833,16.41h-1.077v4.903h1.077
			c0.729,0,1.118-0.332,1.118-1.364v-2.175C34.952,16.74,34.558,16.41,33.833,16.41z M0,10.75v21.558h99.398V10.75H0z M9.814,16.41
			h-2.38v12.423H5.157V16.41H2.774v-2.07h7.04V16.41z M17.994,28.832h-2.319v-6.211h-2.588v6.211h-2.276V14.339h2.273v6.213h2.588
			v-6.213h2.319L17.994,28.832L17.994,28.832z M25.861,16.41h-3.936v4.033h3.128v2.072h-3.128v4.244h3.936v2.068h-6.212v-14.49
			h6.212V16.41z M37.229,19.806c0,2.318-1.118,3.583-3.396,3.583h-1.077v5.444H30.48V14.339h3.354c2.276,0,3.396,1.264,3.396,3.582
			L37.229,19.806L37.229,19.806z M45.469,28.832H43.15v-6.211h-2.588v6.211h-2.276V14.339h2.276v6.213h2.588v-6.213h2.317
			L45.469,28.832L45.469,28.832z M49.401,28.832h-2.274V14.339h2.274V28.832z M57.083,28.832h-6.021V14.339h2.271v12.424h3.748
			L57.083,28.832L57.083,28.832z M64.104,28.832h-6.022V14.339h2.272v12.424h3.748v2.068H64.104z M67.374,28.832h-2.273V14.339
			h2.273V28.832L67.374,28.832z M75.782,19.806c0,2.318-1.119,3.583-3.396,3.583h-1.074v5.444h-2.276V14.339h3.354
			c2.273,0,3.396,1.264,3.396,3.582L75.782,19.806L75.782,19.806z M79.116,28.832h-2.277V14.339h2.277V28.832z M85.843,28.832
			l-0.393-2.629h-2.796l-0.396,2.629h-2.092l2.319-14.494h3.334l2.318,14.494H85.843z M96.403,28.832h-2.34l-2.797-10.497h-0.041
			v10.499h-2.051V14.339h2.854l2.3,8.676h0.041v-8.676h2.028L96.403,28.832L96.403,28.832z"/>
	</g>
</g>
<g>
	<path fill="#959494" d="M144.329,17.738c-0.42,0-0.687,0.228-0.687,0.827v0.9h-1.246v-0.816c0-1.343,0.672-2.11,1.967-2.11
		c1.296,0,1.968,0.768,1.968,2.11c0,1.116-0.408,2.016-1.631,3.322c-0.779,0.84-0.996,1.235-0.996,1.68c0,0.06,0,0.119,0.012,0.181
		h2.496v1.199h-3.814V24c0-0.937,0.336-1.645,1.318-2.675c1.008-1.067,1.297-1.727,1.297-2.626
		C145.013,17.942,144.747,17.738,144.329,17.738z"/>
	<path fill="#959494" d="M147.042,18.649c0-1.343,0.707-2.11,2.002-2.11s2.004,0.768,2.004,2.11v4.366
		c0,1.343-0.709,2.109-2.004,2.109s-2.002-0.768-2.002-2.109V18.649z M148.36,23.1c0,0.601,0.265,0.827,0.685,0.827
		s0.684-0.229,0.684-0.827v-4.534c0-0.6-0.264-0.827-0.684-0.827s-0.685,0.228-0.685,0.827V23.1z"/>
	<path fill="#959494" d="M152.716,17.69c1.02,0,1.248-0.492,1.451-1.056h0.889v8.397h-1.32v-6.405h-1.02V17.69z"/>
	<path fill="#959494" d="M157.841,22.319v0.78c0,0.6,0.264,0.814,0.684,0.814s0.685-0.215,0.685-0.814v-1.848
		c0-0.6-0.265-0.827-0.685-0.827s-0.684,0.228-0.684,0.827v0.252h-1.248l0.24-4.869h3.479v1.199h-2.303l-0.109,2.003h0.025
		c0.24-0.396,0.611-0.611,1.139-0.611c0.974,0,1.463,0.684,1.463,1.919v1.871c0,1.343-0.672,2.109-1.967,2.109
		s-1.967-0.768-1.967-2.109v-0.696H157.841L157.841,22.319z"/>
</g>
<text transform="matrix(1 0 0 1 22.616 42.9136)" fill="#959494" font-family="'BebasNeue'" font-size="12">CLASS OF 2015</text>
</svg>
